<svg width="18" height="16" viewBox="0 0 18 16" fill="none" xmlns="http://www.w3.org/2000/svg">
<path d="M14.5739 3.63121H3.06755C2.564 3.63121 2.1328 3.21755 2.1328 2.69646C2.1328 2.17536 2.54645 1.7617 3.06755 1.7617H15.3289C15.7966 1.7617 16.1737 1.38386 16.1737 0.916848C16.1737 0.449113 15.7959 0.0719915 15.3289 0.0719915L3.0857 0.0712891C1.64741 0.0712891 0.460449 1.23991 0.460449 2.67821V12.9619C0.460449 14.5982 1.79059 15.9284 3.42694 15.9284H14.5738C16.2101 15.9284 17.5402 14.5982 17.5402 12.9619V6.59775C17.5402 4.9614 16.2101 3.63126 14.5738 3.63126L14.5739 3.63121ZM13.0457 11.1999C12.2725 11.1999 11.6433 10.5706 11.6433 9.79741C11.6433 9.02418 12.2725 8.39492 13.0457 8.39492C13.819 8.39492 14.4482 9.02418 14.4482 9.79741C14.4482 10.5706 13.8365 11.1999 13.0457 11.1999Z" fill="url(#paint0_linear_2514_20535)"/>
<path d="M14.5739 3.63121H3.06755C2.564 3.63121 2.1328 3.21755 2.1328 2.69646C2.1328 2.17536 2.54645 1.7617 3.06755 1.7617H15.3289C15.7966 1.7617 16.1737 1.38386 16.1737 0.916848C16.1737 0.449113 15.7959 0.0719915 15.3289 0.0719915L3.0857 0.0712891C1.64741 0.0712891 0.460449 1.23991 0.460449 2.67821V12.9619C0.460449 14.5982 1.79059 15.9284 3.42694 15.9284H14.5738C16.2101 15.9284 17.5402 14.5982 17.5402 12.9619V6.59775C17.5402 4.9614 16.2101 3.63126 14.5738 3.63126L14.5739 3.63121ZM13.0457 11.1999C12.2725 11.1999 11.6433 10.5706 11.6433 9.79741C11.6433 9.02418 12.2725 8.39492 13.0457 8.39492C13.819 8.39492 14.4482 9.02418 14.4482 9.79741C14.4482 10.5706 13.8365 11.1999 13.0457 11.1999Z" fill="url(#paint1_linear_2514_20535)"/>
<defs>
<linearGradient id="paint0_linear_2514_20535" x1="14.6968" y1="2.56887" x2="2.0591" y2="22.9295" gradientUnits="userSpaceOnUse">
<stop stop-color="#100F11"/>
<stop offset="1" stop-color="#1C1A1F" stop-opacity="0"/>
</linearGradient>
<linearGradient id="paint1_linear_2514_20535" x1="9.00035" y1="0.0712891" x2="9.00035" y2="15.9284" gradientUnits="userSpaceOnUse">
<stop stop-color="#03FF8E" stop-opacity="0.51"/>
<stop offset="1" stop-color="#4FFFB0" stop-opacity="0"/>
</linearGradient>
</defs>
</svg>
