<svg width="13" height="13" viewBox="0 0 13 13" fill="none" xmlns="http://www.w3.org/2000/svg">
<circle cx="6.5" cy="6.5" r="6.5" fill="url(#paint0_linear_2971_21399)"/>
<path d="M8.35944 3.37012L6.32542 5.23417C6.11557 5.42686 5.84139 5.53434 5.5565 5.53558L4.95007 5.53702L4.94814 3.37012H3.85205V9.56245H4.44981C4.61458 9.56286 4.77647 9.5193 4.91878 9.43627C5.0611 9.35324 5.17869 9.23375 5.25942 9.09012C5.26087 9.08819 5.26135 9.08602 5.26279 9.08482C5.37112 8.88814 5.42553 8.49958 5.41518 8.23428C5.39159 7.62786 5.29481 7.47017 5.29481 7.47017C5.27459 7.88593 4.84414 7.90832 4.84414 7.90832C5.15037 7.61341 4.98353 7.39049 4.98353 7.39049C4.44138 7.77976 4.30585 7.36401 4.2955 7.32645C4.31235 7.34089 4.4669 7.47089 4.75988 7.06573C5.06972 6.63745 5.48307 5.92365 5.74596 5.74021C6.00957 5.55604 6.25946 5.57121 6.25946 5.57121C6.25946 5.57121 6.40342 5.37452 6.78403 5.21106C7.1644 5.0488 7.40851 5.28689 7.40851 5.28689C7.01948 5.60347 6.49105 6.12347 6.46144 6.86856C6.43809 7.47162 7.72629 8.50608 7.50024 10.0343C7.63553 9.68715 7.6897 9.33952 7.64348 8.90932C7.60616 8.56217 7.38444 7.83706 7.38444 7.83706L8.62185 9.56197H9.98998L7.31583 5.85552L9.98974 3.37012H8.3592H8.35944Z" fill="white"/>
<path d="M5.86743 6.03638C5.78101 6.18082 5.78101 6.22512 5.78101 6.22512C5.78101 6.22512 6.08314 6.1736 6.16499 5.81152C6.16571 5.81152 5.97191 5.8616 5.86743 6.03638Z" fill="white"/>
<defs>
<linearGradient id="paint0_linear_2971_21399" x1="19.5352" y1="8.50569" x2="9.62375" y2="-3.09074" gradientUnits="userSpaceOnUse">
<stop stop-color="#E40C5B"/>
<stop offset="1" stop-color="#FF4C3B"/>
</linearGradient>
</defs>
</svg>
