<svg width="32" height="32" viewBox="0 0 32 32" fill="none" xmlns="http://www.w3.org/2000/svg">
  <g clip-path="url(#clip0_9048_133193)">
    <path d="M16 32C24.8365 32 32 24.8365 32 16C32 7.16345 24.8365 0 16 0C7.16345 0 0 7.16345 0 16C0 24.8365 7.16345 32 16 32Z" fill="#E40C5B" />
    <path fill-rule="evenodd" clip-rule="evenodd" d="M1.51562 16C1.51562 8.00085 8.00019 1.5163 15.9993 1.5163C23.9984 1.5163 30.4831 8.00085 30.4831 16C30.4831 23.9991 23.9984 30.4837 15.9993 30.4837C8.00019 30.4837 1.51562 23.9991 1.51562 16ZM15.9993 2.1563C8.35365 2.1563 2.15562 8.35432 2.15562 16C2.15562 23.6457 8.35366 29.8437 15.9993 29.8437C23.645 29.8437 29.8431 23.6457 29.8431 16C29.8431 8.35432 23.645 2.1563 15.9993 2.1563Z" fill="white" />
    <path d="M13.068 20.8538V24.5455C13.068 24.9638 12.9792 25.3267 12.8017 25.634C12.6241 25.9387 12.3694 26.1712 12.0374 26.3312C11.7055 26.4912 11.313 26.5715 10.8601 26.5715C10.1756 26.5715 9.6365 26.3932 9.2428 26.0367C8.84905 25.6805 8.64837 25.1925 8.64062 24.5726V20.8538H10.0033V24.5997C10.0187 25.217 10.3043 25.5255 10.8601 25.5255C11.1406 25.5255 11.3529 25.448 11.497 25.2932C11.6411 25.1382 11.7132 24.8864 11.7132 24.5377V20.8538H13.068Z" fill="white" />
    <path d="M16.8186 24.9948C16.8186 24.796 16.7478 24.641 16.6063 24.53C16.4673 24.4189 16.2216 24.304 15.869 24.1852C15.5165 24.0664 15.2283 23.9515 15.0044 23.8404C14.2761 23.4815 13.912 22.9882 13.912 22.3607C13.912 22.0482 14.0021 21.7732 14.1822 21.5356C14.3649 21.2954 14.6223 21.1094 14.9542 20.9777C15.2862 20.8434 15.6593 20.7763 16.0736 20.7763C16.4776 20.7763 16.8392 20.8486 17.1583 20.9932C17.4799 21.1379 17.7296 21.3445 17.9071 21.6131C18.0846 21.8791 18.1734 22.1838 18.1734 22.5272H16.8224C16.8224 22.2974 16.7517 22.1192 16.6101 21.9927C16.4712 21.8661 16.2821 21.8029 16.0428 21.8029C15.8008 21.8029 15.6091 21.8571 15.4676 21.9656C15.3286 22.0714 15.2591 22.207 15.2591 22.3723C15.2591 22.5169 15.3364 22.6486 15.4908 22.7674C15.6451 22.8836 15.9166 23.005 16.3052 23.1316C16.6938 23.2555 17.0129 23.3898 17.2625 23.5344C17.8698 23.8856 18.1734 24.3699 18.1734 24.9871C18.1734 25.4802 17.9881 25.8677 17.6176 26.1492C17.2471 26.4307 16.7388 26.5715 16.0929 26.5715C15.6374 26.5715 15.2244 26.4902 14.8539 26.3275C14.4859 26.1622 14.2079 25.9375 14.0201 25.6535C13.8348 25.3667 13.7422 25.0375 13.7422 24.6656H15.1009C15.1009 24.9677 15.1781 25.1912 15.3325 25.3357C15.4894 25.4777 15.7429 25.5487 16.0929 25.5487C16.3168 25.5487 16.4931 25.501 16.6218 25.4055C16.7529 25.3072 16.8186 25.1705 16.8186 24.9948Z" fill="white" />
    <path d="M18.8672 26.494V20.8538H20.6775C21.1741 20.8538 21.6206 20.9674 22.0169 21.1947C22.4132 21.4194 22.722 21.7383 22.9433 22.1515C23.1672 22.5621 23.2804 23.0231 23.283 23.5344V23.794C23.283 24.3104 23.1736 24.774 22.9549 25.1847C22.7387 25.5927 22.4325 25.913 22.0362 26.1452C21.6425 26.3752 21.2024 26.4912 20.7161 26.494H18.8672ZM20.222 21.9036V25.448H20.6929C21.0815 25.448 21.38 25.3097 21.5884 25.0335C21.7969 24.7547 21.9011 24.3414 21.9011 23.794V23.5499C21.9011 23.005 21.7969 22.5944 21.5884 22.318C21.38 22.0417 21.0764 21.9036 20.6775 21.9036H20.222Z" fill="white" />
    <path fill-rule="evenodd" clip-rule="evenodd" d="M15.987 14.3736C15.4308 14.373 14.8756 14.4195 14.3272 14.5128L15.1535 13.0782C15.432 13.0594 15.7106 13.0499 15.987 13.0499C16.6369 13.0504 17.2858 13.1025 17.9275 13.2059L14.7292 7.6387L9.402 16.9084L8.64062 15.5833L14.7169 5.00592L14.7292 5.02767L14.7414 5.00665L22.0748 17.7715H20.5522L18.8382 14.7884C17.9133 14.5099 16.9525 14.3699 15.987 14.3729V14.3736ZM22.546 16.9302L15.4465 4.57147H16.9692L23.3074 15.605L22.546 16.9302ZM15.4999 10.6696L12.5844 15.7465C13.6279 15.4303 14.8555 15.2889 16.0137 15.2889C16.1076 15.2889 16.2014 15.2889 16.2952 15.2925C16.9529 15.3081 17.6083 15.3765 18.2551 15.497L19.2279 17.1906C18.1985 16.8095 17.1107 16.6131 16.0137 16.6103C14.4154 16.6046 12.8409 16.9995 11.4327 17.7592L11.4544 17.7207L11.4247 17.7715H9.90205L14.7436 9.3445L15.4999 10.6696Z" fill="white" />
  </g>
  <defs>
    <clipPath id="clip0_9048_133193">
      <rect width="32" height="32" fill="white" />
    </clipPath>
  </defs>
</svg>
  