<svg width="32" height="32" viewBox="0 0 32 32" fill="none" xmlns="http://www.w3.org/2000/svg">
  <g clip-path="url(#clip0_9048_133223)">
    <circle cx="16" cy="16" r="16" fill="url(#paint0_linear_9048_133223)" />
    <path d="M20.5756 8.29626L15.5688 12.8847C15.0522 13.359 14.3773 13.6236 13.676 13.6266L12.1833 13.6302L12.1785 8.29626H9.48047V23.5389H10.9519C11.3575 23.5399 11.756 23.4327 12.1063 23.2283C12.4566 23.024 12.746 22.7298 12.9448 22.3763C12.9483 22.3715 12.9495 22.3662 12.9531 22.3632C13.2197 21.8791 13.3537 20.9226 13.3282 20.2696C13.2701 18.7769 13.0319 18.3887 13.0319 18.3887C12.9821 19.4121 11.9225 19.4672 11.9225 19.4672C12.6763 18.7413 12.2657 18.1926 12.2657 18.1926C10.9311 19.1508 10.5975 18.1274 10.572 18.0349C10.6135 18.0705 10.994 18.3905 11.7151 17.3932C12.4778 16.3389 13.4953 14.5819 14.1424 14.1303C14.7913 13.677 15.4064 13.7143 15.4064 13.7143C15.4064 13.7143 15.7608 13.2302 16.6977 12.8278C17.634 12.4284 18.2348 13.0145 18.2348 13.0145C17.2772 13.7937 15.9765 15.0737 15.9036 16.9078C15.8461 18.3923 19.0171 20.9386 18.4606 24.7004C18.7937 23.8459 18.927 22.9902 18.8132 21.9312C18.7214 21.0767 18.1756 19.2918 18.1756 19.2918L21.2215 23.5377H24.5892L18.0067 14.4142L24.5886 8.29626H20.575H20.5756Z" fill="white" />
    <path d="M14.4432 14.859C14.2305 15.2146 14.2305 15.3236 14.2305 15.3236C14.2305 15.3236 14.9742 15.1968 15.1757 14.3055C15.1774 14.3055 14.7004 14.4288 14.4432 14.859Z" fill="white" />
  </g>
  <defs>
    <linearGradient id="paint0_linear_9048_133223" x1="48.0866" y1="20.9371" x2="23.6892" y2="-7.60797" gradientUnits="userSpaceOnUse">
      <stop stop-color="#E40C5B" />
      <stop offset="1" stop-color="#FF4C3B" />
    </linearGradient>
    <clipPath id="clip0_9048_133223">
      <rect width="32" height="32" rx="16" fill="white" />
    </clipPath>
  </defs>
</svg>
  