<svg
  width="440"
  height="440"
  viewBox="0 0 440 440"
  fill="none"
  xmlns="http://www.w3.org/2000/svg"
>
<path
    d="M440 220C440 341.503 341.503 440 220 440C98.4974 440 0 341.503 0 220C0 98.4974 98.4974 0 220 0C341.503 0 440 98.4974 440 220Z"
    fill="black"
  />
<path
    d="M372.6 127.4C367.4 123.3 361.2 117.7 349.9 116.3C339.3 114.9 328.5 122 321.2 126.7C313.9 131.4 300.1 145.2 294.4 149.4C288.7 153.6 274.1 157.5 250.6 171.6C227.1 185.7 134.9 244.9 134.9 244.9L158.9 245.2L51.9 300.3H62.5999L47.2 312C47.2 312 60.8 315.6 72.2 308.4V311.7C72.2 311.7 199.6 261.5 224.2 274.5L209.2 278.9C210.5 278.9 234.7 280.5 234.7 280.5C235.287 285.511 236.972 290.331 239.633 294.618C242.295 298.904 245.869 302.551 250.1 305.3C264.7 314.9 265 320.2 265 320.2C265 320.2 257.4 323.3 257.4 327.2C257.4 327.2 268.6 323.8 279 324.1C285.6 324.35 292.147 325.391 298.5 327.2C298.5 327.2 297.7 323 287.6 320.2C277.5 317.4 267.5 306.4 262.6 300.4C259.599 296.58 257.642 292.046 256.924 287.242C256.205 282.438 256.748 277.53 258.5 273C262 263.9 274.2 258.9 299.4 245.9C329.1 230.5 335.9 219.1 340.1 210.2C344.3 201.3 350.5 183.6 354 175.3C358.4 164.6 363.8 158.9 368.3 155.5C372.8 152.1 392.8 144.6 392.8 144.6C392.8 144.6 377.5 131.3 372.6 127.4Z"
    fill="white"
  />
</svg>
