<svg
  width="102"
  height="102"
  viewBox="0 0 102 102"
  fill="none"
  xmlns="http://www.w3.org/2000/svg"
>
  <path
    d="M101.301 51C101.301 78.7805 78.7806 101.301 51.0002 101.301C23.2197 101.301 0.699219 78.7805 0.699219 51C0.699219 23.2196 23.2197 0.699097 51.0002 0.699097C78.7806 0.699097 101.301 23.2196 101.301 51Z"
    fill="#2C3335"
  />
  <path
    d="M101.301 51C101.301 78.7805 78.7806 101.301 51.0002 101.301C23.2197 101.301 0.699219 78.7805 0.699219 51C0.699219 23.2196 23.2197 0.699097 51.0002 0.699097C78.7806 0.699097 101.301 23.2196 101.301 51Z"
    fill="url(#paint0_linear_2955_35124)"
    fill-opacity="0.5"
  />
  <path
    fill-rule="evenodd"
    clip-rule="evenodd"
    d="M51.0002 98.301C77.1237 98.301 98.3011 77.1236 98.3011 51C98.3011 24.8764 77.1237 3.6991 51.0002 3.6991C24.8766 3.6991 3.69922 24.8764 3.69922 51C3.69922 77.1236 24.8766 98.301 51.0002 98.301ZM51.0002 101.301C78.7806 101.301 101.301 78.7805 101.301 51C101.301 23.2196 78.7806 0.699097 51.0002 0.699097C23.2197 0.699097 0.699219 23.2196 0.699219 51C0.699219 78.7805 23.2197 101.301 51.0002 101.301Z"
    fill="url(#paint1_linear_2955_35124)"
    fill-opacity="0.33"
  />
  <path
    fill-rule="evenodd"
    clip-rule="evenodd"
    d="M51.0002 98.301C77.1237 98.301 98.3011 77.1236 98.3011 51C98.3011 24.8764 77.1237 3.6991 51.0002 3.6991C24.8766 3.6991 3.69922 24.8764 3.69922 51C3.69922 77.1236 24.8766 98.301 51.0002 98.301ZM51.0002 101.301C78.7806 101.301 101.301 78.7805 101.301 51C101.301 23.2196 78.7806 0.699097 51.0002 0.699097C23.2197 0.699097 0.699219 23.2196 0.699219 51C0.699219 78.7805 23.2197 101.301 51.0002 101.301Z"
    fill="url(#paint2_linear_2955_35124)"
    fill-opacity="0.33"
  />
  <g opacity="0.6">
    <path
      fill-rule="evenodd"
      clip-rule="evenodd"
      d="M54.3707 48.3235C56.8888 46.4502 57.8793 44.7539 57.8793 43.2582C57.8793 41.5178 57.2872 40.2423 56.147 39.3095C54.9849 38.3586 53.2832 37.8182 50.9127 37.8182C48.5998 37.8182 46.9966 38.4084 45.9386 39.4378C44.8818 40.4969 44.3096 41.9009 44.28 43.7444C44.2784 44.088 44.19 44.5257 43.844 44.8717C43.4949 45.2208 43.0525 45.3077 42.7076 45.3077H39.7022C39.3603 45.3077 38.9175 45.2305 38.5588 44.8994C38.185 44.5544 38.082 44.1017 38.082 43.7353C38.082 40.5068 39.1387 37.7294 41.2628 35.466C43.4853 33.1001 46.7507 32.0018 50.865 32.0018C54.9519 32.0018 58.2547 32.9571 60.6281 35.0102C63.0077 37.041 64.2204 39.638 64.2204 42.7335C64.2204 44.3799 63.9283 45.9018 63.3261 47.2833L63.3222 47.2921C62.7383 48.5975 61.9978 49.6879 61.0829 50.5296C60.2794 51.2688 59.3974 52.0546 58.437 52.8869L58.4297 52.8932L58.4223 52.8994C57.4739 53.6897 56.6063 54.4312 55.819 55.124C55.1443 55.7177 54.5526 56.522 54.059 57.5672L54.0543 57.5771C53.588 58.5372 53.3438 59.6409 53.3438 60.9088C53.3438 61.2752 53.2408 61.7279 52.867 62.0729C52.5084 62.404 52.0655 62.4812 51.7236 62.4812H48.4321C48.0902 62.4812 47.6473 62.404 47.2887 62.0729C46.9149 61.7279 46.8119 61.2752 46.8119 60.9088C46.8119 58.7763 47.2187 56.841 48.0587 55.126C48.8682 53.4733 49.8645 52.1041 51.062 51.0474C52.1598 50.0788 53.2592 49.1734 54.3601 48.3315L54.3707 48.3235Z"
      fill="url(#paint3_linear_2955_35124)"
    />
    <path
      fill-rule="evenodd"
      clip-rule="evenodd"
      d="M54.3707 48.3235C56.8888 46.4502 57.8793 44.7539 57.8793 43.2582C57.8793 41.5178 57.2872 40.2423 56.147 39.3095C54.9849 38.3586 53.2832 37.8182 50.9127 37.8182C48.5998 37.8182 46.9966 38.4084 45.9386 39.4378C44.8818 40.4969 44.3096 41.9009 44.28 43.7444C44.2784 44.088 44.19 44.5257 43.844 44.8717C43.4949 45.2208 43.0525 45.3077 42.7076 45.3077H39.7022C39.3603 45.3077 38.9175 45.2305 38.5588 44.8994C38.185 44.5544 38.082 44.1017 38.082 43.7353C38.082 40.5068 39.1387 37.7294 41.2628 35.466C43.4853 33.1001 46.7507 32.0018 50.865 32.0018C54.9519 32.0018 58.2547 32.9571 60.6281 35.0102C63.0077 37.041 64.2204 39.638 64.2204 42.7335C64.2204 44.3799 63.9283 45.9018 63.3261 47.2833L63.3222 47.2921C62.7383 48.5975 61.9978 49.6879 61.0829 50.5296C60.2794 51.2688 59.3974 52.0546 58.437 52.8869L58.4297 52.8932L58.4223 52.8994C57.4739 53.6897 56.6063 54.4312 55.819 55.124C55.1443 55.7177 54.5526 56.522 54.059 57.5672L54.0543 57.5771C53.588 58.5372 53.3438 59.6409 53.3438 60.9088C53.3438 61.2752 53.2408 61.7279 52.867 62.0729C52.5084 62.404 52.0655 62.4812 51.7236 62.4812H48.4321C48.0902 62.4812 47.6473 62.404 47.2887 62.0729C46.9149 61.7279 46.8119 61.2752 46.8119 60.9088C46.8119 58.7763 47.2187 56.841 48.0587 55.126C48.8682 53.4733 49.8645 52.1041 51.062 51.0474C52.1598 50.0788 53.2592 49.1734 54.3601 48.3315L54.3707 48.3235Z"
      fill="url(#paint4_linear_2955_35124)"
    />
    <path
      fill-rule="evenodd"
      clip-rule="evenodd"
      d="M54.3707 48.3235C56.8888 46.4502 57.8793 44.7539 57.8793 43.2582C57.8793 41.5178 57.2872 40.2423 56.147 39.3095C54.9849 38.3586 53.2832 37.8182 50.9127 37.8182C48.5998 37.8182 46.9966 38.4084 45.9386 39.4378C44.8818 40.4969 44.3096 41.9009 44.28 43.7444C44.2784 44.088 44.19 44.5257 43.844 44.8717C43.4949 45.2208 43.0525 45.3077 42.7076 45.3077H39.7022C39.3603 45.3077 38.9175 45.2305 38.5588 44.8994C38.185 44.5544 38.082 44.1017 38.082 43.7353C38.082 40.5068 39.1387 37.7294 41.2628 35.466C43.4853 33.1001 46.7507 32.0018 50.865 32.0018C54.9519 32.0018 58.2547 32.9571 60.6281 35.0102C63.0077 37.041 64.2204 39.638 64.2204 42.7335C64.2204 44.3799 63.9283 45.9018 63.3261 47.2833L63.3222 47.2921C62.7383 48.5975 61.9978 49.6879 61.0829 50.5296C60.2794 51.2688 59.3974 52.0546 58.437 52.8869L58.4297 52.8932L58.4223 52.8994C57.4739 53.6897 56.6063 54.4312 55.819 55.124C55.1443 55.7177 54.5526 56.522 54.059 57.5672L54.0543 57.5771C53.588 58.5372 53.3438 59.6409 53.3438 60.9088C53.3438 61.2752 53.2408 61.7279 52.867 62.0729C52.5084 62.404 52.0655 62.4812 51.7236 62.4812H48.4321C48.0902 62.4812 47.6473 62.404 47.2887 62.0729C46.9149 61.7279 46.8119 61.2752 46.8119 60.9088C46.8119 58.7763 47.2187 56.841 48.0587 55.126C48.8682 53.4733 49.8645 52.1041 51.062 51.0474C52.1598 50.0788 53.2592 49.1734 54.3601 48.3315L54.3707 48.3235Z"
      fill="url(#paint5_linear_2955_35124)"
    />
    <path
      d="M45.1523 69.7634C45.1523 71.111 45.6228 72.2881 46.5635 73.2288C47.5402 74.2055 48.7364 74.7144 50.1034 74.7144C51.5022 74.7144 52.7116 74.2171 53.6547 73.2174C54.5877 72.2786 55.0544 71.1056 55.0544 69.7634C55.0544 68.4213 54.5877 67.2482 53.6547 66.3095C52.7116 65.3097 51.5022 64.8124 50.1034 64.8124C48.7364 64.8124 47.5402 65.3213 46.5635 66.298C45.6228 67.2387 45.1523 68.4158 45.1523 69.7634Z"
      fill="url(#paint6_linear_2955_35124)"
    />
    <path
      d="M45.1523 69.7634C45.1523 71.111 45.6228 72.2881 46.5635 73.2288C47.5402 74.2055 48.7364 74.7144 50.1034 74.7144C51.5022 74.7144 52.7116 74.2171 53.6547 73.2174C54.5877 72.2786 55.0544 71.1056 55.0544 69.7634C55.0544 68.4213 54.5877 67.2482 53.6547 66.3095C52.7116 65.3097 51.5022 64.8124 50.1034 64.8124C48.7364 64.8124 47.5402 65.3213 46.5635 66.298C45.6228 67.2387 45.1523 68.4158 45.1523 69.7634Z"
      fill="url(#paint7_linear_2955_35124)"
    />
    <path
      d="M45.1523 69.7634C45.1523 71.111 45.6228 72.2881 46.5635 73.2288C47.5402 74.2055 48.7364 74.7144 50.1034 74.7144C51.5022 74.7144 52.7116 74.2171 53.6547 73.2174C54.5877 72.2786 55.0544 71.1056 55.0544 69.7634C55.0544 68.4213 54.5877 67.2482 53.6547 66.3095C52.7116 65.3097 51.5022 64.8124 50.1034 64.8124C48.7364 64.8124 47.5402 65.3213 46.5635 66.298C45.6228 67.2387 45.1523 68.4158 45.1523 69.7634Z"
      fill="url(#paint8_linear_2955_35124)"
    />
  </g>
  <defs>
    <linearGradient
      id="paint0_linear_2955_35124"
      x1="51.0002"
      y1="0.699097"
      x2="51.0002"
      y2="101.301"
      gradientUnits="userSpaceOnUse"
    >
      <stop stop-color="#323B3E" />
      <stop offset="1" stop-color="#212728" />
    </linearGradient>
    <linearGradient
      id="paint1_linear_2955_35124"
      x1="0.699219"
      y1="101.392"
      x2="101.301"
      y2="101.392"
      gradientUnits="userSpaceOnUse"
    >
      <stop stop-color="#4FFFB0" />
      <stop offset="1" stop-color="#4FFFB1" stop-opacity="0" />
    </linearGradient>
    <linearGradient
      id="paint2_linear_2955_35124"
      x1="51.0002"
      y1="0.699097"
      x2="51.0002"
      y2="101.301"
      gradientUnits="userSpaceOnUse"
    >
      <stop stop-color="#FCAE33" />
      <stop offset="1" stop-color="#FCAE33" stop-opacity="0" />
    </linearGradient>
    <linearGradient
      id="paint3_linear_2955_35124"
      x1="38.415"
      y1="13.9047"
      x2="65.3025"
      y2="13.9047"
      gradientUnits="userSpaceOnUse"
    >
      <stop stop-color="#FFCE4F" />
      <stop offset="1" stop-color="#4FFFB0" />
    </linearGradient>
    <linearGradient
      id="paint4_linear_2955_35124"
      x1="38.415"
      y1="13.9047"
      x2="65.3025"
      y2="13.9047"
      gradientUnits="userSpaceOnUse"
    >
      <stop stop-color="#4FFFB0" />
      <stop offset="0.505223" stop-color="#A2FF76" />
      <stop offset="1" stop-color="#FF984E" />
    </linearGradient>
    <linearGradient
      id="paint5_linear_2955_35124"
      x1="38.415"
      y1="13.9047"
      x2="65.3025"
      y2="13.9047"
      gradientUnits="userSpaceOnUse"
    >
      <stop stop-color="#4FFFB0" />
      <stop offset="0.463556" stop-color="#B3FF8F" />
      <stop offset="1" stop-color="#FF984E" />
    </linearGradient>
    <linearGradient
      id="paint6_linear_2955_35124"
      x1="45.2785"
      y1="58.933"
      x2="55.4644"
      y2="58.933"
      gradientUnits="userSpaceOnUse"
    >
      <stop stop-color="#FFCE4F" />
      <stop offset="1" stop-color="#4FFFB0" />
    </linearGradient>
    <linearGradient
      id="paint7_linear_2955_35124"
      x1="45.2785"
      y1="58.933"
      x2="55.4644"
      y2="58.933"
      gradientUnits="userSpaceOnUse"
    >
      <stop stop-color="#4FFFB0" />
      <stop offset="0.505223" stop-color="#A2FF76" />
      <stop offset="1" stop-color="#FF984E" />
    </linearGradient>
    <linearGradient
      id="paint8_linear_2955_35124"
      x1="45.2785"
      y1="58.933"
      x2="55.4644"
      y2="58.933"
      gradientUnits="userSpaceOnUse"
    >
      <stop stop-color="#4FFFB0" />
      <stop offset="0.463556" stop-color="#B3FF8F" />
      <stop offset="1" stop-color="#FF984E" />
    </linearGradient>
  </defs>
</svg>
