<svg width="48" height="48" viewBox="0 0 48 48" fill="none" xmlns="http://www.w3.org/2000/svg">
<g clip-path="url(#clip0_2067_3803)">
<rect width="48" height="48" rx="20" fill="white"/>
<path d="M47.2766 29.8057C44.0712 42.663 31.0489 50.4877 18.1901 47.2815C5.33667 44.0761 -2.48802 31.053 0.718765 18.1967C3.92273 5.33806 16.9451 -2.48721 29.7999 0.718162C42.6577 3.92354 50.4819 16.9481 47.2762 29.806L47.2765 29.8057H47.2766Z" fill="#50AF95"/>
<path fill-rule="evenodd" clip-rule="evenodd" d="M27.037 26.7209C26.8673 26.7336 25.9905 26.7859 24.0347 26.7859C22.4791 26.7859 21.3746 26.7393 20.9872 26.7209C14.9755 26.4564 10.4883 25.4099 10.4883 24.157C10.4883 22.904 14.9755 21.8589 20.9872 21.5902V25.6786C21.3803 25.7069 22.506 25.7734 24.0616 25.7734C25.9283 25.7734 26.8631 25.6956 27.0314 25.68V21.5931C33.0303 21.8603 37.5076 22.9068 37.5076 24.157C37.5076 25.4071 33.0317 26.4536 27.0314 26.7195L27.037 26.7209ZM27.0368 21.1703V17.5118H35.4088V11.9329H12.615V17.5118H20.9856V21.1689C14.1819 21.4814 9.06543 22.8291 9.06543 24.4441C9.06543 26.0591 14.1819 27.4054 20.9856 27.7194V39.4429H27.0354V27.7151C33.8235 27.4026 38.9315 26.0563 38.9315 24.4427C38.9315 22.8291 33.8277 21.4828 27.0354 21.1689L27.0368 21.1703Z" fill="white"/>
</g>
<defs>
<clipPath id="clip0_2067_3803">
<rect width="48" height="48" rx="24" fill="white"/>
</clipPath>
</defs>
</svg>