<svg width="28" height="28" viewBox="0 0 28 28" fill="none" xmlns="http://www.w3.org/2000/svg">
<path d="M14.365 0.875C6.87515 0.875 0.80249 6.94985 0.80249 14.4375C0.80249 21.9295 6.87515 28 14.365 28C21.8548 28 27.9275 21.9295 27.9275 14.4375C27.9275 6.94985 21.8548 0.875 14.365 0.875ZM14.365 25.375C8.32027 25.375 3.42749 20.4842 3.42749 14.4375C3.42749 8.3948 8.32049 3.5 14.365 3.5C20.4075 3.5 25.3025 8.39295 25.3025 14.4375C25.3025 20.4821 20.4117 25.375 14.365 25.375ZM20.2299 11.4187C20.2299 15.0857 16.2694 15.1421 16.2694 16.4972V16.8438C16.2694 17.2062 15.9755 17.5 15.6131 17.5H13.1168C12.7544 17.5 12.4606 17.2062 12.4606 16.8438V16.3702C12.4606 14.4154 13.9426 13.634 15.0625 13.0061C16.0229 12.4677 16.6115 12.1015 16.6115 11.3885C16.6115 10.4453 15.4084 9.8193 14.4358 9.8193C13.1677 9.8193 12.5822 10.4196 11.7593 11.4582C11.5374 11.7382 11.1326 11.7902 10.8479 11.5744L9.32625 10.4206C9.04696 10.2088 8.9844 9.81542 9.18165 9.52574C10.4738 7.62841 12.1195 6.5625 14.6819 6.5625C17.3654 6.5625 20.2299 8.65725 20.2299 11.4187ZM16.6619 20.5625C16.6619 21.829 15.6315 22.8594 14.365 22.8594C13.0985 22.8594 12.0681 21.829 12.0681 20.5625C12.0681 19.296 13.0985 18.2656 14.365 18.2656C15.6315 18.2656 16.6619 19.296 16.6619 20.5625Z" fill="#BDCCD4"/>
</svg>
