<svg width="22" height="20" viewBox="0 0 22 20" fill="none" xmlns="http://www.w3.org/2000/svg">
<path d="M21.5183 15.7929L13.1278 1.2539C12.6659 0.47655 11.829 0 10.9247 0C10.0204 0 9.1835 0.47655 8.72157 1.2539L0.331073 15.7929C-0.114227 16.581 -0.110327 17.5458 0.342792 18.3291C0.795917 19.1123 1.62892 19.5987 2.53419 19.6055H19.3154C20.2207 19.5987 21.0537 19.1123 21.5068 18.3291C21.96 17.5459 21.9639 16.5811 21.5186 15.7929H21.5183ZM9.72932 15.3085C9.72932 14.6484 10.2645 14.1132 10.9246 14.1132C11.5848 14.1132 12.1199 14.6484 12.1199 15.3085C12.1199 15.9687 11.5848 16.5038 10.9246 16.5038C10.2645 16.5038 9.72932 15.9687 9.72932 15.3085ZM11.7059 5.81627V12.4178C11.7059 12.8494 11.3563 13.199 10.9246 13.199C10.493 13.199 10.1434 12.8494 10.1434 12.4178V5.81627C10.1434 5.38462 10.493 5.03503 10.9246 5.03503C11.3563 5.03503 11.7059 5.38462 11.7059 5.81627Z" fill="url(#paint0_linear_10186_7779)"/>
<defs>
<linearGradient id="paint0_linear_10186_7779" x1="10.9248" y1="0" x2="10.9248" y2="19.6055" gradientUnits="userSpaceOnUse">
<stop stop-color="#FFC98A"/>
<stop offset="1" stop-color="#FFC98A" stop-opacity="0.27"/>
</linearGradient>
</defs>
</svg>
