<svg width="32" height="20" viewBox="0 0 32 20" fill="none" xmlns="http://www.w3.org/2000/svg">
<path d="M30.073 3.84965H26.6309C26.3577 2.91766 25.7898 2.09927 25.0123 1.51705C24.2347 0.934829 23.2894 0.620117 22.3179 0.620117C21.3464 0.620117 20.401 0.934829 19.6234 1.51705C18.8458 2.09927 18.278 2.91766 18.0048 3.84965H1.63655C1.29386 3.84965 0.965256 3.98573 0.722935 4.22798C0.480613 4.47022 0.344482 4.79878 0.344482 5.14136C0.344482 5.48394 0.480613 5.8125 0.722935 6.05474C0.965256 6.29699 1.29386 6.43307 1.63655 6.43307H18.0048C18.278 7.36506 18.8458 8.18345 19.6234 8.76567C20.401 9.34789 21.3464 9.66257 22.3179 9.66257C23.2894 9.66257 24.2347 9.34789 25.0123 8.76567C25.7898 8.18345 26.3577 7.36506 26.6309 6.43307H30.073C30.4157 6.43307 30.7444 6.29699 30.9867 6.05474C31.2291 5.8125 31.3651 5.48394 31.3651 5.14136C31.3651 4.79878 31.2291 4.47022 30.9867 4.22798C30.7444 3.98573 30.4157 3.84965 30.073 3.84965ZM22.3179 7.07951C21.9344 7.07951 21.5595 6.96584 21.2407 6.75287C20.9219 6.5399 20.6734 6.2372 20.5266 5.88305C20.3799 5.5289 20.3415 5.13922 20.4163 4.76325C20.4911 4.38729 20.6758 4.04194 20.9469 3.77088C21.2181 3.49983 21.5635 3.31523 21.9396 3.24045C22.3157 3.16566 22.7055 3.20404 23.0598 3.35073C23.414 3.49743 23.7169 3.74586 23.9299 4.06458C24.143 4.38331 24.2567 4.75803 24.2567 5.14136C24.256 5.6552 24.0515 6.14781 23.6881 6.51115C23.3246 6.87448 22.8319 7.07888 22.3179 7.07951Z" fill="#BDCCD4"/>
<path d="M30.0731 14.1857H13.7049C13.4317 13.2537 12.8638 12.4353 12.0862 11.853C11.3086 11.2708 10.3632 10.9561 9.39174 10.9561C8.42024 10.9561 7.47491 11.2708 6.69735 11.853C5.91978 12.4353 5.35186 13.2537 5.07867 14.1857H1.63655C1.3005 14.1959 0.981648 14.3365 0.747549 14.5777C0.51345 14.819 0.382568 15.1419 0.382568 15.478C0.382568 15.8141 0.51345 16.1369 0.747549 16.3782C0.981648 16.6194 1.3005 16.7601 1.63655 16.7703H5.07867C5.35186 17.7022 5.91978 18.5206 6.69735 19.1029C7.47491 19.6851 8.42024 19.9998 9.39174 19.9998C10.3632 19.9998 11.3086 19.6851 12.0862 19.1029C12.8638 18.5206 13.4317 17.7022 13.7049 16.7703H30.0731C30.4091 16.7601 30.7279 16.6194 30.962 16.3782C31.1961 16.1369 31.3271 15.8141 31.3271 15.478C31.3271 15.1419 31.1961 14.819 30.962 14.5777C30.7279 14.3365 30.4091 14.1959 30.0731 14.1857ZM9.39174 17.4167C9.00828 17.4167 8.63347 17.303 8.31464 17.0901C7.99581 16.8771 7.7473 16.5744 7.60055 16.2202C7.45381 15.8661 7.41542 15.4764 7.49023 15.1004C7.56504 14.7245 7.74966 14.3791 8.0208 14.1081C8.29195 13.837 8.63742 13.6524 9.01351 13.5776C9.3896 13.5029 9.77945 13.5412 10.1337 13.6879C10.488 13.8346 10.7908 14.083 11.0038 14.4018C11.2168 14.7205 11.3305 15.0952 11.3305 15.4785C11.3299 15.9924 11.1255 16.485 10.762 16.8483C10.3986 17.2117 9.90575 17.4161 9.39174 17.4167Z" fill="#BDCCD4"/>
</svg>
