<svg
  width="23"
  height="22"
  viewBox="0 0 23 22"
  fill="none"
  xmlns="http://www.w3.org/2000/svg"
>
<path
    d="M22.2053 14.7678C22.1598 14.7249 22.1117 14.6851 22.061 14.6485C21.7548 14.4432 21.3858 14.3527 21.0193 14.3928C20.6527 14.433 20.3122 14.6013 20.0577 14.868L19.5805 15.3451C19.4163 15.5092 19.2786 15.698 19.1725 15.9044L18.8766 16.471V2.37799C18.8915 2.00652 18.7735 1.64187 18.5436 1.34959C18.3138 1.05731 17.9872 0.85654 17.6226 0.783336C17.4261 0.754286 17.2258 0.764265 17.0332 0.81271C16.8406 0.861154 16.6594 0.947099 16.5 1.06564C16.3406 1.18419 16.2062 1.33301 16.1044 1.50355C16.0027 1.6741 15.9356 1.863 15.9069 2.0595C15.8952 2.13847 15.8897 2.21824 15.8903 2.29806V16.4471L15.6862 16.0011C15.576 15.7629 15.4249 15.5457 15.24 15.3594L14.7413 14.8597C14.4867 14.5931 14.1461 14.425 13.7795 14.3851C13.413 14.3451 13.0441 14.4359 12.7381 14.6414C12.5777 14.7585 12.442 14.9061 12.3388 15.0757C12.2355 15.2453 12.1668 15.4335 12.1364 15.6297C12.106 15.8259 12.1147 16.0262 12.1618 16.2191C12.209 16.4119 12.2937 16.5936 12.4112 16.7537C12.4509 16.8083 12.4944 16.8601 12.5412 16.9087L16.3222 20.6872C16.4625 20.8277 16.6291 20.9392 16.8125 21.0152C16.996 21.0913 17.1926 21.1304 17.3912 21.1304C17.5898 21.1304 17.7864 21.0913 17.9698 21.0152C18.1533 20.9392 18.3199 20.8277 18.4602 20.6872V20.6872L22.2411 16.9087C22.3798 16.766 22.4888 16.5973 22.5621 16.4123C22.6353 16.2273 22.6713 16.0298 22.6679 15.8308C22.6646 15.6319 22.6221 15.4356 22.5427 15.2532C22.4633 15.0708 22.3486 14.9058 22.2053 14.7678V14.7678Z"
    fill="white"
  />
<path
    d="M10.1299 4.17641L6.40262 0.443226C6.26232 0.302725 6.09568 0.191254 5.91224 0.115202C5.7288 0.039149 5.53218 0 5.3336 0C5.13501 0 4.93839 0.039149 4.75496 0.115202C4.57152 0.191254 4.40487 0.302725 4.26457 0.443226V0.443226L0.483595 4.22173C0.217691 4.47588 0.049815 4.81554 0.00945199 5.18109C-0.0309111 5.54663 0.0588205 5.91469 0.262872 6.2207C0.499903 6.54427 0.855824 6.76047 1.2523 6.82175C1.64878 6.88304 2.05338 6.78438 2.37711 6.54749C2.4315 6.50747 2.48324 6.46408 2.53214 6.41751L3.04525 5.90345C3.29204 5.65706 3.4786 5.35705 3.59046 5.02679L3.79451 4.55805V18.8396C3.78044 19.2132 3.90074 19.5795 4.13364 19.872C4.36654 20.1646 4.69657 20.364 5.06394 20.4342C5.25995 20.4661 5.46037 20.459 5.65365 20.4134C5.84693 20.3678 6.02932 20.2846 6.19042 20.1685C6.35152 20.0525 6.48816 19.9058 6.59254 19.7369C6.69692 19.568 6.76702 19.3802 6.79877 19.1842C6.81327 19.098 6.82002 19.0105 6.81902 18.9231V4.56166L6.96939 4.99221C7.08309 5.31091 7.26646 5.60021 7.50623 5.83903L8.05152 6.3841C8.1919 6.52446 8.35855 6.63579 8.54198 6.71176C8.7254 6.78772 8.92201 6.82681 9.12055 6.82681C9.31909 6.82681 9.51569 6.78772 9.69912 6.71176C9.88254 6.63579 10.0492 6.52446 10.1896 6.3841C10.2193 6.35492 10.2476 6.32427 10.2743 6.29226C10.519 5.98532 10.6399 5.59792 10.6132 5.20631C10.5865 4.8147 10.4141 4.44729 10.1299 4.17641V4.17641Z"
    fill="white"
  />
</svg>
