<svg fill="none" height="32" viewBox="0 0 32 32" width="32" xmlns="http://www.w3.org/2000/svg"><path d="m15.9991.00000003c3.1646-.00018147 6.2581.93806997 8.8894 2.69609997 2.6314 1.75803 4.6823 4.25688 5.8934 7.18054s1.528 6.14076.9107 9.24456-2.1412 5.9548-4.3789 8.1925-5.0887 3.7616-8.1925 4.3789-6.3209.3004-9.24456-.9107-5.42251-3.262-7.18054-5.8934c-1.75803-2.6313-2.69628144-5.7248-2.69609997-8.8894 0-2.1011.41383197-4.1815 1.21785997-6.1226.80403-1.9411 1.98251-3.70483 3.46816-5.19048s3.24938-2.66413 5.19048-3.46816c1.9411-.804032 4.0215-1.21785997 6.1226-1.21785997zm-5.2199 15.99909997c0 7.7321 5.2199 13.9997 5.2199 13.9997s5.2198-6.2676 5.2198-13.9997-5.2198-13.99887-5.2198-13.99887-5.2199 6.26769-5.2199 13.99887z" fill="#4fffb0"/></svg>