<svg width="14" height="15" viewBox="0 0 14 15" fill="none" xmlns="http://www.w3.org/2000/svg">
<path d="M11.0835 5.89309C11.0679 5.84398 11.0543 5.79359 11.0366 5.74447C10.9907 5.61587 10.9116 5.49995 10.8064 5.40703C10.7012 5.31412 10.5731 5.24711 10.4336 5.212C10.2941 5.17688 10.1475 5.17474 10.0069 5.20577C9.86629 5.2368 9.73608 5.30003 9.62783 5.38983C9.59591 5.41598 9.56601 5.44404 9.53613 5.47211L7.08193 7.77732C7.05951 7.79773 7.03983 7.82197 7.01402 7.85003C6.98345 7.82324 6.96105 7.80347 6.93931 7.78306L4.45116 5.44723C4.29803 5.28322 4.08178 5.18306 3.85 5.16876C3.61822 5.15447 3.38988 5.22722 3.21523 5.37101C3.04057 5.51481 2.93394 5.71786 2.91871 5.93551C2.90349 6.15316 2.98096 6.36757 3.13409 6.53158C3.16126 6.5622 3.19044 6.5909 3.22033 6.61961L6.35582 9.56332C6.48299 9.69594 6.65287 9.78581 6.83956 9.81922C7.02625 9.85262 7.21945 9.82772 7.38964 9.7483C7.48401 9.70299 7.57022 9.64401 7.64506 9.57353C8.69928 8.5874 9.75257 7.59979 10.805 6.61068C10.9458 6.47501 11.0424 6.30439 11.0835 6.1189V5.89309Z" fill="#8AFFCB"/>
</svg>
