<svg width="14" height="15" viewBox="0 0 14 15" fill="none" xmlns="http://www.w3.org/2000/svg">
<path d="M2.9165 9.10691C2.93213 9.15602 2.94573 9.20641 2.96339 9.25553C3.00929 9.38413 3.08835 9.50005 3.19357 9.59297C3.29879 9.68588 3.42691 9.75289 3.56641 9.788C3.70592 9.82312 3.85251 9.82526 3.99311 9.79423C4.13371 9.7632 4.26392 9.69997 4.37217 9.61017C4.40409 9.58402 4.43399 9.55596 4.46387 9.52789L6.91807 7.22268C6.94049 7.20227 6.96017 7.17803 6.98598 7.14997C7.01655 7.17676 7.03895 7.19653 7.06069 7.21694L9.54884 9.55277C9.70197 9.71678 9.91822 9.81694 10.15 9.83124C10.3818 9.84553 10.6101 9.77278 10.7848 9.62899C10.9594 9.48519 11.0661 9.28214 11.0813 9.06449C11.0965 8.84684 11.019 8.63243 10.8659 8.46842C10.8387 8.4378 10.8096 8.4091 10.7797 8.38039L7.64418 5.43668C7.51701 5.30406 7.34713 5.21419 7.16044 5.18078C6.97375 5.14738 6.78055 5.17228 6.61036 5.2517C6.51599 5.29701 6.42978 5.35599 6.35494 5.42647C5.30072 6.4126 4.24743 7.40021 3.19502 8.38932C3.0542 8.52499 2.95755 8.69561 2.9165 8.8811V9.10691Z" fill="#8AFFCB"/>
</svg>
