<svg width="34" height="34" viewBox="0 0 34 34" fill="none" xmlns="http://www.w3.org/2000/svg">
<rect width="34" height="34" rx="17" fill="black"/>
<path d="M27.3747 10.691C27.0224 10.4132 26.6024 10.0338 25.8368 9.93892C25.1186 9.84407 24.3869 10.3251 23.8923 10.6435C23.3977 10.962 22.4627 11.897 22.0765 12.1815C21.6903 12.4661 20.7011 12.7303 19.109 13.6856C17.5168 14.6409 11.27 18.6519 11.27 18.6519L12.8961 18.6722L5.64656 22.4054H6.37151L5.32812 23.1981C5.32812 23.1981 6.24956 23.442 7.02193 22.9542V23.1777C7.02193 23.1777 15.6536 19.7766 17.3203 20.6573L16.304 20.9555C16.3921 20.9555 18.0317 21.0639 18.0317 21.0639C18.0715 21.4034 18.1856 21.73 18.3659 22.0204C18.5463 22.3108 18.7884 22.5579 19.0751 22.7441C20.0643 23.3945 20.0846 23.7536 20.0846 23.7536C20.0846 23.7536 19.5697 23.9637 19.5697 24.2279C19.5697 24.2279 20.3285 23.9975 21.0331 24.0179C21.4803 24.0348 21.9239 24.1053 22.3543 24.2279C22.3543 24.2279 22.3001 23.9433 21.6158 23.7536C20.9315 23.5639 20.254 22.8186 19.922 22.4121C19.7186 22.1534 19.5861 21.8462 19.5374 21.5207C19.4887 21.1952 19.5255 20.8627 19.6442 20.5557C19.8813 19.9392 20.7079 19.6004 22.4153 18.7196C24.4275 17.6762 24.8882 16.9039 25.1728 16.3009C25.4573 15.6979 25.8774 14.4987 26.1145 13.9363C26.4127 13.2114 26.7785 12.8252 27.0834 12.5948C27.3883 12.3645 28.7433 11.8563 28.7433 11.8563C28.7433 11.8563 27.7067 10.9552 27.3747 10.691Z" fill="white"/>
</svg>
