<svg width="102" height="102" viewBox="0 0 102 102" fill="none" xmlns="http://www.w3.org/2000/svg">
<path d="M101.301 51C101.301 78.7805 78.7806 101.301 51.0002 101.301C23.2197 101.301 0.699219 78.7805 0.699219 51C0.699219 23.2196 23.2197 0.699097 51.0002 0.699097C78.7806 0.699097 101.301 23.2196 101.301 51Z" fill="#2C3335"/>
<path d="M101.301 51C101.301 78.7805 78.7806 101.301 51.0002 101.301C23.2197 101.301 0.699219 78.7805 0.699219 51C0.699219 23.2196 23.2197 0.699097 51.0002 0.699097C78.7806 0.699097 101.301 23.2196 101.301 51Z" fill="url(#paint0_linear_2955_35124)" fill-opacity="0.5"/>
<path fill-rule="evenodd" clip-rule="evenodd" d="M51.0002 98.301C77.1237 98.301 98.3011 77.1236 98.3011 51C98.3011 24.8764 77.1237 3.6991 51.0002 3.6991C24.8766 3.6991 3.69922 24.8764 3.69922 51C3.69922 77.1236 24.8766 98.301 51.0002 98.301ZM51.0002 101.301C78.7806 101.301 101.301 78.7805 101.301 51C101.301 23.2196 78.7806 0.699097 51.0002 0.699097C23.2197 0.699097 0.699219 23.2196 0.699219 51C0.699219 78.7805 23.2197 101.301 51.0002 101.301Z" fill="url(#paint1_linear_2955_35124)" fill-opacity="0.33"/>
<path fill-rule="evenodd" clip-rule="evenodd" d="M51.0002 98.301C77.1237 98.301 98.3011 77.1236 98.3011 51C98.3011 24.8764 77.1237 3.6991 51.0002 3.6991C24.8766 3.6991 3.69922 24.8764 3.69922 51C3.69922 77.1236 24.8766 98.301 51.0002 98.301ZM51.0002 101.301C78.7806 101.301 101.301 78.7805 101.301 51C101.301 23.2196 78.7806 0.699097 51.0002 0.699097C23.2197 0.699097 0.699219 23.2196 0.699219 51C0.699219 78.7805 23.2197 101.301 51.0002 101.301Z" fill="url(#paint2_linear_2955_35124)" fill-opacity="0.33"/>
<g opacity="0.6">
<path fill-rule="evenodd" clip-rule="evenodd" d="M54.3687 48.3235C56.8869 46.4502 57.8773 44.7539 57.8773 43.2582C57.8773 41.5178 57.2852 40.2423 56.1451 39.3095C54.9829 38.3586 53.2812 37.8182 50.9107 37.8182C48.5978 37.8182 46.9946 38.4084 45.9366 39.4378C44.8799 40.4969 44.3076 41.9009 44.278 43.7444C44.2765 44.088 44.188 44.5257 43.842 44.8717C43.493 45.2208 43.0506 45.3077 42.7056 45.3077H39.7002C39.3583 45.3077 38.9155 45.2305 38.5568 44.8994C38.183 44.5544 38.0801 44.1017 38.0801 43.7353C38.0801 40.5068 39.1367 37.7294 41.2608 35.466C43.4834 33.1001 46.7488 32.0018 50.863 32.0018C54.9499 32.0018 58.2528 32.9571 60.6262 35.0102C63.0057 37.041 64.2184 39.638 64.2184 42.7335C64.2184 44.3799 63.9263 45.9018 63.3241 47.2833L63.3203 47.2921C62.7363 48.5975 61.9959 49.6879 61.0809 50.5296C60.2775 51.2688 59.3954 52.0546 58.4351 52.8869L58.4277 52.8932L58.4203 52.8994C57.472 53.6897 56.6043 54.4312 55.817 55.124C55.1424 55.7177 54.5506 56.522 54.0571 57.5672L54.0524 57.5771C53.586 58.5372 53.3418 59.6409 53.3418 60.9088C53.3418 61.2752 53.2389 61.7279 52.8651 62.0729C52.5064 62.404 52.0636 62.4812 51.7217 62.4812H48.4301C48.0882 62.4812 47.6454 62.404 47.2867 62.0729C46.9129 61.7279 46.8099 61.2752 46.8099 60.9088C46.8099 58.7763 47.2168 56.841 48.0568 55.126C48.8663 53.4733 49.8626 52.1041 51.0601 51.0474C52.1579 50.0788 53.2572 49.1734 54.3581 48.3315L54.3687 48.3235Z" fill="url(#paint3_linear_2955_35124)"/>
<path d="M45.1504 69.7634C45.1504 71.111 45.6209 72.2881 46.5615 73.2288C47.5382 74.2055 48.7345 74.7144 50.1014 74.7144C51.5003 74.7144 52.7097 74.2171 53.6527 73.2174C54.5858 72.2786 55.0525 71.1056 55.0525 69.7634C55.0525 68.4213 54.5858 67.2482 53.6527 66.3095C52.7097 65.3097 51.5003 64.8124 50.1014 64.8124C48.7345 64.8124 47.5382 65.3213 46.5615 66.298C45.6209 67.2387 45.1504 68.4158 45.1504 69.7634Z" fill="url(#paint4_linear_2955_35124)"/>
</g>
<defs>
<linearGradient id="paint0_linear_2955_35124" x1="51.0002" y1="0.699097" x2="51.0002" y2="101.301" gradientUnits="userSpaceOnUse">
<stop stop-color="#323B3E"/>
<stop offset="1" stop-color="#212728"/>
</linearGradient>
<linearGradient id="paint1_linear_2955_35124" x1="0.699219" y1="101.392" x2="101.301" y2="101.392" gradientUnits="userSpaceOnUse">
<stop stop-color="#4FFFB0"/>
<stop offset="1" stop-color="#4FFFB1" stop-opacity="0"/>
</linearGradient>
<linearGradient id="paint2_linear_2955_35124" x1="51.0002" y1="0.699097" x2="51.0002" y2="101.301" gradientUnits="userSpaceOnUse">
<stop stop-color="#FCAE33"/>
<stop offset="1" stop-color="#FCAE33" stop-opacity="0"/>
</linearGradient>
<linearGradient id="paint3_linear_2955_35124" x1="38.4131" y1="13.9047" x2="65.3006" y2="13.9047" gradientUnits="userSpaceOnUse">
<stop stop-color="#FFCE4F"/>
<stop offset="1" stop-color="#4FFFB0"/>
</linearGradient>
<linearGradient id="paint4_linear_2955_35124" x1="45.2765" y1="58.933" x2="55.4624" y2="58.933" gradientUnits="userSpaceOnUse">
<stop stop-color="#FFCE4F"/>
<stop offset="1" stop-color="#4FFFB0"/>
</linearGradient>
</defs>
</svg>
