<svg width="16" height="17" viewBox="0 0 16 17" fill="none" xmlns="http://www.w3.org/2000/svg">
<path d="M1 8.78638C1 4.92038 4.13401 1.78638 8 1.78638C11.866 1.78638 15 4.92038 15 8.78638C15 12.6524 11.866 15.7864 8 15.7864C4.13401 15.7864 1 12.6524 1 8.78638Z" fill="#3E3E4B"/>
<path d="M1 8.78638C1 4.92038 4.13401 1.78638 8 1.78638C11.866 1.78638 15 4.92038 15 8.78638C15 12.6524 11.866 15.7864 8 15.7864C4.13401 15.7864 1 12.6524 1 8.78638Z" fill="#44444A"/>
<path fill-rule="evenodd" clip-rule="evenodd" d="M8.67725 5.18395C8.67725 5.70197 8.26716 6.11926 7.74195 6.11926C7.22393 6.11926 6.80664 5.70197 6.80664 5.18395C6.80664 4.65874 7.22393 4.24146 7.74195 4.24146C8.26716 4.24146 8.67725 4.65874 8.67725 5.18395ZM10.0001 12.1328C10.0001 12.4278 9.7699 12.6364 9.47492 12.6364H6.54669C6.25171 12.6364 6.02148 12.4278 6.02148 12.1328C6.02148 11.8522 6.25171 11.6292 6.54669 11.6292H7.43883V8.32683H6.669C6.37402 8.32683 6.14379 8.11819 6.14379 7.82321C6.14379 7.54261 6.37402 7.31958 6.669 7.31958H8.0216C8.38853 7.31958 8.58278 7.57859 8.58278 7.9671V11.6292H9.47492C9.7699 11.6292 10.0001 11.8522 10.0001 12.1328Z" fill="#BDCCD4"/>
<path fill-rule="evenodd" clip-rule="evenodd" d="M8.67725 5.18395C8.67725 5.70197 8.26716 6.11926 7.74195 6.11926C7.22393 6.11926 6.80664 5.70197 6.80664 5.18395C6.80664 4.65874 7.22393 4.24146 7.74195 4.24146C8.26716 4.24146 8.67725 4.65874 8.67725 5.18395ZM10.0001 12.1328C10.0001 12.4278 9.7699 12.6364 9.47492 12.6364H6.54669C6.25171 12.6364 6.02148 12.4278 6.02148 12.1328C6.02148 11.8522 6.25171 11.6292 6.54669 11.6292H7.43883V8.32683H6.669C6.37402 8.32683 6.14379 8.11819 6.14379 7.82321C6.14379 7.54261 6.37402 7.31958 6.669 7.31958H8.0216C8.38853 7.31958 8.58278 7.57859 8.58278 7.9671V11.6292H9.47492C9.7699 11.6292 10.0001 11.8522 10.0001 12.1328Z" fill="#9EA9B1"/>
<path d="M8 14.7864C4.68629 14.7864 2 12.1001 2 8.78638H0C0 13.2047 3.58172 16.7864 8 16.7864V14.7864ZM14 8.78638C14 12.1001 11.3137 14.7864 8 14.7864V16.7864C12.4183 16.7864 16 13.2047 16 8.78638H14ZM8 2.78638C11.3137 2.78638 14 5.47267 14 8.78638H16C16 4.3681 12.4183 0.786377 8 0.786377V2.78638ZM8 0.786377C3.58172 0.786377 0 4.3681 0 8.78638H2C2 5.47267 4.68629 2.78638 8 2.78638V0.786377Z" fill="#51515F"/>
<path d="M8 14.7864C4.68629 14.7864 2 12.1001 2 8.78638H0C0 13.2047 3.58172 16.7864 8 16.7864V14.7864ZM14 8.78638C14 12.1001 11.3137 14.7864 8 14.7864V16.7864C12.4183 16.7864 16 13.2047 16 8.78638H14ZM8 2.78638C11.3137 2.78638 14 5.47267 14 8.78638H16C16 4.3681 12.4183 0.786377 8 0.786377V2.78638ZM8 0.786377C3.58172 0.786377 0 4.3681 0 8.78638H2C2 5.47267 4.68629 2.78638 8 2.78638V0.786377Z" fill="#5B5B63"/>
</svg>
