<svg width="5" height="12" viewBox="0 0 5 12" fill="none" xmlns="http://www.w3.org/2000/svg">
<path d="M4.94443 7.93241C4.94443 6.684 3.91112 6.14863 2.96806 5.73289V2.93877C3.57617 3.05723 3.97169 3.35451 4.09283 3.53337C4.24486 3.74124 4.51802 3.77144 4.73183 3.65182C4.94444 3.50317 4.97532 3.23608 4.85298 3.02702C4.54893 2.61128 3.90992 2.16534 2.96807 2.04571V0.945945C2.96807 0.707876 2.75547 0.5 2.51198 0.5C2.2685 0.5 2.0559 0.707876 2.0559 0.945945V2.01669C0.931129 2.19437 0.0795248 3.02702 0.0795248 4.06756C0.0795248 5.34618 1.11283 5.91056 2.0559 6.29729V9.06239C1.41689 8.94393 1.05227 8.64665 0.900238 8.46779C0.748209 8.25992 0.475043 8.20069 0.26123 8.34934C0.0486273 8.49799 -0.0119473 8.76508 0.140081 8.97414C0.413259 9.38988 1.08315 9.86603 2.02499 9.98447V11.0541C2.02499 11.2921 2.2376 11.5 2.48108 11.5C2.72456 11.5 2.93717 11.2921 2.93717 11.0541V9.98331C4.09283 9.80563 4.94443 8.97298 4.94443 7.93244V7.93241ZM0.991685 4.06755C0.991685 3.5914 1.3872 3.08623 2.05589 2.93758V5.31596C1.3872 4.98962 0.991685 4.66214 0.991685 4.06755ZM2.96806 9.06243V6.71426C3.63674 7.04177 4.03226 7.33906 4.03226 7.93366C4.03226 8.40865 3.63674 8.91382 2.96806 9.06246V9.06243Z" fill="#B8FFDF"/>
</svg>
