<svg width="8" height="19" viewBox="0 0 8 19" fill="none" xmlns="http://www.w3.org/2000/svg">
<path d="M8 12.1768C8 10.1339 6.30913 9.25786 4.76593 8.57756V4.00537C5.76103 4.19921 6.40824 4.68567 6.60647 4.97834C6.85524 5.3185 7.30224 5.36791 7.65211 5.17218C8.00001 4.92893 8.05054 4.49187 7.85036 4.14978C7.35281 3.46948 6.30716 2.73975 4.76595 2.54399V0.744377C4.76595 0.354809 4.41806 0.0146484 4.01963 0.0146484C3.6212 0.0146484 3.27331 0.354809 3.27331 0.744377V2.4965C1.43278 2.78726 0.0392446 4.14978 0.0392446 5.85248C0.0392446 7.94475 1.73011 8.8683 3.27331 9.50112V14.0258C2.22766 13.832 1.631 13.3455 1.38223 13.0529C1.13345 12.7127 0.686457 12.6158 0.336581 12.859C-0.0113149 13.1023 -0.110437 13.5393 0.138337 13.8814C0.585354 14.5617 1.68153 15.3409 3.22274 15.5347V17.2849C3.22274 17.6745 3.57063 18.0146 3.96906 18.0146C4.36749 18.0146 4.71538 17.6745 4.71538 17.2849V15.5328C6.60647 15.242 8 13.8795 8 12.1768V12.1768ZM1.53187 5.85246C1.53187 5.0733 2.17908 4.24667 3.27329 4.00342V7.89531C2.17908 7.36129 1.53187 6.82543 1.53187 5.85246ZM4.76593 14.0259V10.1834C5.86014 10.7194 6.50735 11.2058 6.50735 12.1788C6.50735 12.9561 5.86014 13.7827 4.76593 14.026V14.0259Z" fill="#B8FFDF"/>
</svg>
