<svg width="14" height="15" viewBox="0 0 14 15" fill="none" xmlns="http://www.w3.org/2000/svg">
<path d="M2.8554 1.01519C2.59283 1.04383 2.39441 1.27573 2.39575 1.55166V12.9409H1.54057C1.52253 12.9402 1.50516 12.9402 1.48712 12.9409C1.35083 12.9486 1.22321 13.0122 1.13236 13.1177C1.04083 13.2238 0.993393 13.3628 1.00074 13.5053C1.00742 13.6478 1.06889 13.7813 1.16977 13.8763C1.27133 13.972 1.40428 14.0216 1.54058 14.0139H4.27714C4.41477 14.016 4.54705 13.9601 4.64459 13.8595C4.7428 13.7589 4.79759 13.6213 4.79759 13.4774C4.79759 13.3335 4.7428 13.1959 4.64459 13.0953C4.54705 12.9947 4.41476 12.9388 4.27714 12.9409H3.42196V8.5258H12.4815C12.6759 8.52719 12.8543 8.41403 12.9425 8.23312C13.0307 8.0522 13.014 7.83425 12.8984 7.6708L10.8994 4.77046L12.9037 1.86457C13.016 1.70112 13.0313 1.48597 12.9431 1.30645C12.8556 1.12762 12.6792 1.01516 12.4868 1.01516H2.90885C2.89081 1.01446 2.87344 1.01449 2.8554 1.01519ZM3.42196 2.08813H11.482L9.84647 4.452C9.71552 4.63991 9.71552 4.89557 9.84647 5.08346L11.482 7.45288H3.42196V2.08813Z" fill="#B8FFDF" stroke="#B8FFDF" stroke-width="0.4"/>
</svg>
