<svg width="117" height="117" viewBox="0 0 117 117" fill="none" xmlns="http://www.w3.org/2000/svg">
<path d="M112.088 58.5C114.525 58.5 116.517 56.5217 116.332 54.0919C115.656 45.2177 112.944 36.5969 108.383 28.9085C103.07 19.9522 95.4439 12.5915 86.3049 7.59927C77.166 2.60702 66.8515 0.167362 56.4444 0.536439C46.0373 0.905516 35.9215 4.06971 27.1591 9.69682C18.3968 15.3239 11.311 23.2064 6.64579 32.5165C1.98058 41.8267 -0.0919812 52.2212 0.64571 62.6087C1.3834 72.9961 4.90413 82.9934 10.8383 91.5508C15.9323 98.8968 22.6435 104.949 30.4319 109.256C32.5644 110.435 35.1925 109.446 36.2062 107.23C37.22 105.014 36.2333 102.413 34.1171 101.205C27.7625 97.5768 22.2806 92.5659 18.0897 86.5224C13.0584 79.2669 10.0733 70.7906 9.44789 61.9836C8.82243 53.1765 10.5797 44.3634 14.5351 36.4698C18.4905 28.5761 24.4982 21.8929 31.9275 17.1219C39.3567 12.351 47.9334 9.66817 56.7571 9.35524C65.5808 9.04232 74.326 11.1108 82.0746 15.3435C89.8231 19.5762 96.2892 25.817 100.794 33.4107C104.546 39.736 106.822 46.8056 107.478 54.0936C107.696 56.5206 109.651 58.5 112.088 58.5Z" fill="url(#paint0_linear_3895_24020)"/>
<defs>
<linearGradient id="paint0_linear_3895_24020" x1="34.83" y1="142.382" x2="126.374" y2="111.104" gradientUnits="userSpaceOnUse">
<stop stop-color="#4FFFB0" stop-opacity="0"/>
<stop offset="0.12698" stop-color="#4FFFB0" stop-opacity="0"/>
<stop offset="0.364632" stop-color="#4FFFB0" stop-opacity="0.14"/>
<stop offset="0.826449" stop-color="#2EFFA1"/>
<stop offset="0.994354" stop-color="#FFE668"/>
</linearGradient>
</defs>
</svg>
