<svg width="16" height="16" viewBox="0 0 16 16" fill="none" xmlns="http://www.w3.org/2000/svg">
<path d="M1 8C1 4.13401 4.13401 1 8 1V1C11.866 1 15 4.13401 15 8V8C15 11.866 11.866 15 8 15V15C4.13401 15 1 11.866 1 8V8Z" fill="#3E3E4B"/>
<path d="M1 8C1 4.13401 4.13401 1 8 1V1C11.866 1 15 4.13401 15 8V8C15 11.866 11.866 15 8 15V15C4.13401 15 1 11.866 1 8V8Z" fill="#44444A"/>
<path fill-rule="evenodd" clip-rule="evenodd" d="M8.67725 4.39758C8.67725 4.91559 8.26716 5.33288 7.74195 5.33288C7.22393 5.33288 6.80664 4.91559 6.80664 4.39758C6.80664 3.87237 7.22393 3.45508 7.74195 3.45508C8.26716 3.45508 8.67725 3.87237 8.67725 4.39758ZM10.0001 11.3464C10.0001 11.6414 9.7699 11.8501 9.47492 11.8501H6.54669C6.25171 11.8501 6.02148 11.6414 6.02148 11.3464C6.02148 11.0658 6.25171 10.8428 6.54669 10.8428H7.43883V7.54045H6.669C6.37402 7.54045 6.14379 7.33181 6.14379 7.03683C6.14379 6.75624 6.37402 6.5332 6.669 6.5332H8.0216C8.38853 6.5332 8.58278 6.79221 8.58278 7.18072V10.8428H9.47492C9.7699 10.8428 10.0001 11.0658 10.0001 11.3464Z" fill="#BDCCD4"/>
<path fill-rule="evenodd" clip-rule="evenodd" d="M8.67725 4.39758C8.67725 4.91559 8.26716 5.33288 7.74195 5.33288C7.22393 5.33288 6.80664 4.91559 6.80664 4.39758C6.80664 3.87237 7.22393 3.45508 7.74195 3.45508C8.26716 3.45508 8.67725 3.87237 8.67725 4.39758ZM10.0001 11.3464C10.0001 11.6414 9.7699 11.8501 9.47492 11.8501H6.54669C6.25171 11.8501 6.02148 11.6414 6.02148 11.3464C6.02148 11.0658 6.25171 10.8428 6.54669 10.8428H7.43883V7.54045H6.669C6.37402 7.54045 6.14379 7.33181 6.14379 7.03683C6.14379 6.75624 6.37402 6.5332 6.669 6.5332H8.0216C8.38853 6.5332 8.58278 6.79221 8.58278 7.18072V10.8428H9.47492C9.7699 10.8428 10.0001 11.0658 10.0001 11.3464Z" fill="#9EA9B1"/>
<path d="M8 14C4.68629 14 2 11.3137 2 8H0C0 12.4183 3.58172 16 8 16V14ZM14 8C14 11.3137 11.3137 14 8 14V16C12.4183 16 16 12.4183 16 8H14ZM8 2C11.3137 2 14 4.68629 14 8H16C16 3.58172 12.4183 0 8 0V2ZM8 0C3.58172 0 0 3.58172 0 8H2C2 4.68629 4.68629 2 8 2V0Z" fill="#51515F"/>
<path d="M8 14C4.68629 14 2 11.3137 2 8H0C0 12.4183 3.58172 16 8 16V14ZM14 8C14 11.3137 11.3137 14 8 14V16C12.4183 16 16 12.4183 16 8H14ZM8 2C11.3137 2 14 4.68629 14 8H16C16 3.58172 12.4183 0 8 0V2ZM8 0C3.58172 0 0 3.58172 0 8H2C2 4.68629 4.68629 2 8 2V0Z" fill="#5B5B63"/>
</svg>
