<svg width="136" height="135" viewBox="0 0 136 135" fill="none" xmlns="http://www.w3.org/2000/svg">
<path d="M92.448 44.8046C106.544 58.9005 116.481 74.4341 121.173 88.1257C125.882 101.869 125.236 113.503 118.62 120.12C112.003 126.737 100.369 127.383 86.6252 122.673C72.9336 117.981 57.4 108.044 43.3041 93.9485C29.2082 79.8526 19.2712 64.319 14.5795 50.6274C9.87003 36.8837 10.5158 25.2499 17.1326 18.6331C23.7494 12.0163 35.3832 11.3705 49.1269 16.08C62.8185 20.7717 78.3521 30.7087 92.448 44.8046Z" stroke="url(#paint0_angular_2558_18779)" stroke-width="1.5"/>
<path d="M92.448 93.9474C106.544 79.8514 116.481 64.3178 121.173 50.6262C125.882 36.8825 125.236 25.2488 118.62 18.6319C112.003 12.0151 100.369 11.3694 86.6252 16.0789C72.9336 20.7705 57.4 30.7075 43.3041 44.8034C29.2082 58.8993 19.2712 74.433 14.5795 88.1245C9.87003 101.868 10.5158 113.502 17.1326 120.119C23.7494 126.736 35.3832 127.381 49.1269 122.672C62.8185 117.98 78.3521 108.043 92.448 93.9474Z" stroke="url(#paint1_angular_2558_18779)" stroke-width="1.5"/>
<circle cx="122" cy="48.5" r="4.5" fill="#B8FFDF"/>
<path fill-rule="evenodd" clip-rule="evenodd" d="M56.5716 51C54.6781 51 53.1431 52.535 53.1431 54.4286V83.5714C53.1431 85.465 54.6781 87 56.5716 87H81.4288C83.3223 87 84.8574 85.465 84.8574 83.5714V54.4286C84.8574 52.535 83.3223 51 81.4288 51H56.5716ZM59.1429 58.7143C58.6695 58.7143 58.2857 59.098 58.2857 59.5714V61.2857C58.2857 61.7591 58.6695 62.1429 59.1429 62.1429H78.8571C79.3305 62.1429 79.7143 61.7591 79.7143 61.2857V59.5714C79.7143 59.098 79.3305 58.7143 78.8571 58.7143H59.1429ZM58.2857 67.2857C58.2857 66.8123 58.6695 66.4286 59.1429 66.4286H78.8571C79.3305 66.4286 79.7143 66.8123 79.7143 67.2857V69C79.7143 69.4734 79.3305 69.8571 78.8571 69.8571H59.1429C58.6695 69.8571 58.2857 69.4734 58.2857 69V67.2857ZM59.1429 74.1429C58.6695 74.1429 58.2857 74.5266 58.2857 75V76.7143C58.2857 77.1877 58.6695 77.5714 59.1429 77.5714H71.1429C71.6162 77.5714 72 77.1877 72 76.7143V75C72 74.5266 71.6162 74.1429 71.1429 74.1429H59.1429Z" fill="url(#paint2_linear_2558_18779)"/>
<defs>
<radialGradient id="paint0_angular_2558_18779" cx="0" cy="0" r="1" gradientUnits="userSpaceOnUse" gradientTransform="translate(67.8761 69.3766) rotate(45) scale(72.5121 35.5)">
<stop offset="0.0762324" stop-color="#4FFFB0" stop-opacity="0.03"/>
<stop offset="0.263241" stop-color="#4FFFB0" stop-opacity="0.03"/>
<stop offset="0.455358" stop-color="#EBD35A"/>
<stop offset="0.728081" stop-color="#BEE073"/>
</radialGradient>
<radialGradient id="paint1_angular_2558_18779" cx="0" cy="0" r="1" gradientUnits="userSpaceOnUse" gradientTransform="translate(67.8761 69.3754) rotate(-45) scale(72.5121 35.5)">
<stop offset="0.455358" stop-color="#4FFFB0" stop-opacity="0.56"/>
<stop offset="0.769234" stop-color="#4FFFB0"/>
<stop offset="0.991414" stop-color="#4FFFB0" stop-opacity="0.03"/>
</radialGradient>
<linearGradient id="paint2_linear_2558_18779" x1="69.0002" y1="51" x2="48.4222" y2="107.212" gradientUnits="userSpaceOnUse">
<stop stop-color="#4FFFB0"/>
<stop offset="1" stop-color="#4FFFB0" stop-opacity="0"/>
</linearGradient>
</defs>
</svg>
