<svg width="34" height="34" viewBox="0 0 34 34" fill="none" xmlns="http://www.w3.org/2000/svg">
<path d="M16.999 2.79642e-08C20.3614 -0.000192785 23.6483 0.996699 26.4441 2.86461C29.2399 4.73252 31.4189 7.38755 32.7058 10.4939C33.9926 13.6003 34.3293 17.0185 33.6734 20.3163C33.0175 23.6141 31.3984 26.6433 29.0208 29.0208C26.6433 31.3984 23.6141 33.0175 20.3163 33.6734C17.0185 34.3293 13.6003 33.9926 10.4939 32.7058C7.38755 31.4189 4.73252 29.2399 2.86461 26.4441C0.9967 23.6483 -0.000192785 20.3614 2.79642e-08 16.999C2.79642e-08 14.7667 0.439696 12.5562 1.29398 10.4938C2.14826 8.43136 3.40039 6.5574 4.9789 4.9789C6.5574 3.40039 8.43136 2.14825 10.4938 1.29397C12.5562 0.439692 14.7667 2.79642e-08 16.999 2.79642e-08ZM11.4529 16.999C11.4529 25.2144 16.999 31.8738 16.999 31.8738C16.999 31.8738 22.5451 25.2144 22.5451 16.999C22.5451 8.78369 16.999 2.12524 16.999 2.12524C16.999 2.12524 11.4529 8.78466 11.4529 16.999Z" fill="#4FFFB0"/>
</svg>
