<svg
  width="33"
  height="33"
  viewBox="0 0 33 33"
  fill="none"
  xmlns="http://www.w3.org/2000/svg"
>
<path
    d="M16.4991 0.516907C19.6637 0.516725 22.7572 1.45498 25.3885 3.21301C28.0199 4.97104 30.0708 7.46989 31.2819 10.3935C32.493 13.3172 32.8099 16.5343 32.1926 19.6381C31.5753 22.7419 30.0514 25.5929 27.8137 27.8306C25.576 30.0683 22.725 31.5922 19.6212 32.2095C16.5174 32.8268 13.3003 32.5099 10.3766 31.2988C7.45298 30.0877 4.95414 28.0368 3.1961 25.4055C1.43807 22.7741 0.499819 19.6806 0.5 16.516C0.5 14.415 0.913832 12.3345 1.71786 10.3934C2.52189 8.4523 3.70037 6.68858 5.18602 5.20293C6.67167 3.71728 8.4354 2.53879 10.3765 1.73476C12.3176 0.930735 14.398 0.516907 16.4991 0.516907ZM11.2792 16.516C11.2792 24.2481 16.4991 30.5158 16.4991 30.5158C16.4991 30.5158 21.7189 24.2481 21.7189 16.516C21.7189 8.78391 16.4991 2.51714 16.4991 2.51714C16.4991 2.51714 11.2792 8.78483 11.2792 16.516Z"
    fill="#BDCCD4"
  />
<path
    d="M20 14.2779C20 16.7529 17.5165 16.791 17.5165 17.7057V17.9396C17.5165 18.1842 17.3322 18.3826 17.105 18.3826H15.5396C15.3123 18.3826 15.1281 18.1842 15.1281 17.9396V17.62C15.1281 16.3005 16.0574 15.7731 16.7597 15.3492C17.3619 14.9858 17.731 14.7387 17.731 14.2574C17.731 13.6208 16.9766 13.1983 16.3667 13.1983C15.5715 13.1983 15.2044 13.6035 14.6883 14.3045C14.5492 14.4935 14.2953 14.5286 14.1168 14.3829L13.1627 13.6041C12.9875 13.4612 12.9483 13.1956 13.072 13.0001C13.8822 11.7195 14.9142 11 16.521 11C18.2038 11 20 12.4139 20 14.2779ZM17.7626 20.4497C17.7626 21.3045 17.1165 22 16.3223 22C15.5281 22 14.882 21.3045 14.882 20.4497C14.882 19.5948 15.5281 18.8993 16.3223 18.8993C17.1165 18.8993 17.7626 19.5948 17.7626 20.4497Z"
    fill="#BDCCD4"
  />
</svg>
