<svg width="6" height="735" viewBox="0 0 6 735" fill="none" xmlns="http://www.w3.org/2000/svg">
<path d="M2.13345 2.68812V0.838867L3.86646 0.838867L3.86646 2.68812L2.13345 2.68812Z" fill="#BDCCD4"/>
<path d="M2.13345 4.53723V2.68812L3.86646 2.68812L3.86646 4.53723H2.13345Z" fill="#BDCCD4"/>
<path d="M2.13345 6.38682V4.53723H3.86646V6.38682H2.13345Z" fill="#BDCCD4"/>
<path d="M3.86646 4.53723L3.86646 2.68812L5.5995 2.68848V4.53772L3.86646 4.53723Z" fill="#BDCCD4"/>
<path d="M3.86646 6.38682V4.53723L5.5995 4.53772V6.38682L3.86646 6.38682Z" fill="#BDCCD4"/>
<path d="M3.86648 8.23547L3.86646 6.38682L5.5995 6.38682L5.5995 8.23547H3.86648Z" fill="#BDCCD4"/>
<path d="M2.13345 10.0847L2.13345 8.23547H3.86648L3.86646 10.0847H2.13345Z" fill="#BDCCD4"/>
<path d="M2.13345 11.9339L2.13345 10.0847H3.86646V11.9339H2.13345Z" fill="#BDCCD4"/>
<path d="M2.13345 13.7844V11.9352H3.86646L3.86646 13.7844H2.13345Z" fill="#BDCCD4"/>
<path d="M3.86646 11.9339V10.0847L5.59948 10.0847V11.9339H3.86646Z" fill="#BDCCD4"/>
<path d="M3.86646 13.7844L3.86646 11.9352H5.59948V13.7844H3.86646Z" fill="#BDCCD4"/>
<path d="M3.86648 15.6335L3.86646 13.7844H5.59948L5.5995 15.6335H3.86648Z" fill="#BDCCD4"/>
<path d="M2.13345 17.4828L2.13345 15.6335H3.86648L3.86646 17.4828H2.13345Z" fill="#BDCCD4"/>
<path d="M2.13345 19.3324V17.4828H3.86646L3.86646 19.3324H2.13345Z" fill="#BDCCD4"/>
<path d="M2.13345 21.1815V19.3324H3.86646V21.1815H2.13345Z" fill="#BDCCD4"/>
<path d="M3.86646 19.3324L3.86646 17.4828L5.5995 17.4831L5.5995 19.3324H3.86646Z" fill="#BDCCD4"/>
<path d="M3.86646 21.1815V19.3324H5.5995V21.1815H3.86646Z" fill="#BDCCD4"/>
<path d="M3.86648 23.0301L3.86646 21.1815H5.5995V23.0301H3.86648Z" fill="#BDCCD4"/>
<path d="M2.13348 24.8794L2.13348 23.0301L3.86648 23.0301L3.86649 24.8794H2.13348Z" fill="#BDCCD4"/>
<path d="M2.13348 26.7285L2.13348 24.8794H3.86649V26.7285H2.13348Z" fill="#BDCCD4"/>
<path d="M2.13348 28.5781V26.7285H3.86649L3.86649 28.5781H2.13348Z" fill="#BDCCD4"/>
<path d="M3.86649 26.7285V24.8794L5.59952 24.8797V26.729L3.86649 26.7285Z" fill="#BDCCD4"/>
<path d="M3.86649 28.5781L3.86649 26.7285L5.59952 26.729V28.5781H3.86649Z" fill="#BDCCD4"/>
<path d="M3.86649 30.4272L3.86649 28.5781H5.59952L5.5995 30.4272H3.86649Z" fill="#BDCCD4"/>
<path d="M2.13345 32.2765V30.4272H3.86649L3.86646 32.2765H2.13345Z" fill="#BDCCD4"/>
<path d="M2.13345 34.126V32.2765H3.86646L3.86646 34.126H2.13345Z" fill="#BDCCD4"/>
<path d="M2.13345 35.9752V34.126H3.86646V35.9752H2.13345Z" fill="#BDCCD4"/>
<path d="M3.86646 34.126L3.86646 32.2765L5.5995 32.2768V34.126H3.86646Z" fill="#BDCCD4"/>
<path d="M3.86646 35.9752V34.126H5.5995V35.9752H3.86646Z" fill="#BDCCD4"/>
<path d="M3.86649 37.8238L3.86646 35.9752H5.5995V37.8238H3.86649Z" fill="#BDCCD4"/>
<path d="M2.13348 39.673L2.13348 37.8238H3.86649L3.86649 39.673H2.13348Z" fill="#BDCCD4"/>
<path d="M2.13348 41.5221L2.13348 39.673H3.86649L3.86649 41.5221H2.13348Z" fill="#BDCCD4"/>
<path d="M2.13348 43.3717V41.5221H3.86649L3.86649 43.3717H2.13348Z" fill="#BDCCD4"/>
<path d="M3.86649 41.5221L3.86649 39.673L5.5995 39.6729L5.5995 41.5221H3.86649Z" fill="#BDCCD4"/>
<path d="M3.86649 43.3717L3.86649 41.5221H5.5995L5.59953 43.3717H3.86649Z" fill="#BDCCD4"/>
<path d="M3.86649 45.2208L3.86649 43.3717H5.59953L5.5995 45.2208H3.86649Z" fill="#BDCCD4"/>
<path d="M2.13345 47.0701L2.13345 45.2208H3.86649L3.86646 47.0701H2.13345Z" fill="#BDCCD4"/>
<path d="M2.13346 48.9193L2.13345 47.0701H3.86646L3.86646 48.9193H2.13346Z" fill="#BDCCD4"/>
<path d="M2.13346 50.7698V48.9206H3.86646L3.86646 50.7698H2.13346Z" fill="#BDCCD4"/>
<path d="M3.86646 48.9193L3.86646 47.0701L5.59948 47.07V48.9193H3.86646Z" fill="#BDCCD4"/>
<path d="M3.86646 50.7698L3.86646 48.9206H5.59948V50.7698H3.86646Z" fill="#BDCCD4"/>
<path d="M3.86649 52.6189L3.86646 50.7698H5.59948L5.5995 52.6189H3.86649Z" fill="#BDCCD4"/>
<path d="M2.13348 54.4681L2.13348 52.6189H3.86649L3.86649 54.4681H2.13348Z" fill="#BDCCD4"/>
<path d="M2.13348 56.3173L2.13348 54.4681H3.86649V56.3173H2.13348Z" fill="#BDCCD4"/>
<path d="M2.13348 58.1669V56.3173H3.86649L3.86649 58.1669H2.13348Z" fill="#BDCCD4"/>
<path d="M3.86649 56.3173V54.4681L5.59953 54.4685V56.3177L3.86649 56.3173Z" fill="#BDCCD4"/>
<path d="M3.86649 58.1669L3.86649 56.3173L5.59953 56.3177V58.1669H3.86649Z" fill="#BDCCD4"/>
<path d="M3.86649 60.016V58.1669H5.59953L5.5995 60.016H3.86649Z" fill="#BDCCD4"/>
<path d="M2.13345 61.8652L2.13345 60.016H3.86649L3.86646 61.8652H2.13345Z" fill="#BDCCD4"/>
<path d="M2.13345 63.7143V61.8652H3.86646V63.7143H2.13345Z" fill="#BDCCD4"/>
<path d="M2.13345 65.5635V63.7143H3.86646L3.86646 65.5635H2.13345Z" fill="#BDCCD4"/>
<path d="M3.86646 63.7143V61.8652L5.59948 61.8651V63.7143H3.86646Z" fill="#BDCCD4"/>
<path d="M3.86646 65.5635L3.86646 63.7143H5.59948L5.5995 65.5634L3.86646 65.5635Z" fill="#BDCCD4"/>
<path d="M3.86649 67.4126L3.86646 65.5635L5.5995 65.5634V67.4126H3.86649Z" fill="#BDCCD4"/>
<path d="M2.13348 69.2618V67.4126H3.86649L3.86649 69.2618H2.13348Z" fill="#BDCCD4"/>
<path d="M2.13348 71.1109V69.2618H3.86649L3.86649 71.1109H2.13348Z" fill="#BDCCD4"/>
<path d="M2.13348 72.9605V71.1109H3.86649L3.86649 72.9605H2.13348Z" fill="#BDCCD4"/>
<path d="M3.86649 71.1109L3.86649 69.2618L5.59953 69.2622V71.1114L3.86649 71.1109Z" fill="#BDCCD4"/>
<path d="M3.86649 72.9605L3.86649 71.1109L5.59953 71.1114V72.9605H3.86649Z" fill="#BDCCD4"/>
<path d="M3.86649 74.8097V72.9605H5.59953L5.5995 74.8097H3.86649Z" fill="#BDCCD4"/>
<path d="M2.13348 76.6589L2.13348 74.8097H3.86649L3.86649 76.6589H2.13348Z" fill="#BDCCD4"/>
<path d="M2.13348 78.508L2.13348 76.6589H3.86649L3.86649 78.508H2.13348Z" fill="#BDCCD4"/>
<path d="M2.13348 80.3576V78.508H3.86649L3.86649 80.3576H2.13348Z" fill="#BDCCD4"/>
<path d="M3.86649 78.508L3.86649 76.6589L5.59953 76.6593V78.5085L3.86649 78.508Z" fill="#BDCCD4"/>
<path d="M3.86649 80.3576L3.86649 78.508L5.59953 78.5085V80.3576H3.86649Z" fill="#BDCCD4"/>
<path d="M3.86649 82.2067L3.86649 80.3576H5.59953L5.5995 82.2067H3.86649Z" fill="#BDCCD4"/>
<path d="M2.13348 84.056L2.13348 82.2067H3.86649V84.056H2.13348Z" fill="#BDCCD4"/>
<path d="M2.13348 85.9056L2.13348 84.056H3.86649L3.86649 85.9056H2.13348Z" fill="#BDCCD4"/>
<path d="M2.13348 87.7547V85.9056H3.86649L3.86649 87.7547H2.13348Z" fill="#BDCCD4"/>
<path d="M3.86649 85.9056L3.86649 84.056L5.59953 84.0564V85.9056H3.86649Z" fill="#BDCCD4"/>
<path d="M3.86649 87.7547L3.86649 85.9056H5.59953V87.7547H3.86649Z" fill="#BDCCD4"/>
<path d="M3.86649 89.6038V87.7547H5.59953L5.5995 89.6038H3.86649Z" fill="#BDCCD4"/>
<path d="M2.13348 91.4531L2.13348 89.6038H3.86649L3.86649 91.4531H2.13348Z" fill="#BDCCD4"/>
<path d="M2.13348 93.3022L2.13348 91.4531H3.86649L3.86649 93.3022H2.13348Z" fill="#BDCCD4"/>
<path d="M2.13348 95.1518V93.3022H3.86649L3.86649 95.1518H2.13348Z" fill="#BDCCD4"/>
<path d="M3.86649 93.3022L3.86649 91.4531L5.59953 91.4535V93.3027L3.86649 93.3022Z" fill="#BDCCD4"/>
<path d="M3.86649 95.1518L3.86649 93.3022L5.59953 93.3027L5.59953 95.1518H3.86649Z" fill="#BDCCD4"/>
<path d="M3.86649 97.0009V95.1518H5.59953L5.5995 97.0009H3.86649Z" fill="#BDCCD4"/>
<path d="M2.13348 98.8502V97.0009H3.86649L3.86649 98.8502H2.13348Z" fill="#BDCCD4"/>
<path d="M2.13348 100.7V98.8502H3.86649L3.86649 100.7H2.13348Z" fill="#BDCCD4"/>
<path d="M2.13348 102.549V100.7H3.86649L3.86649 102.549H2.13348Z" fill="#BDCCD4"/>
<path d="M3.86649 100.7L3.86649 98.8502L5.59953 98.8505V100.7H3.86649Z" fill="#BDCCD4"/>
<path d="M3.86649 102.549L3.86649 100.7H5.59953V102.549H3.86649Z" fill="#BDCCD4"/>
<path d="M3.86649 104.398L3.86649 102.549H5.59953L5.59951 104.398H3.86649Z" fill="#BDCCD4"/>
<path d="M2.13348 106.247L2.13348 104.398H3.86649V106.247H2.13348Z" fill="#BDCCD4"/>
<path d="M2.13348 108.097L2.13348 106.247H3.86649L3.86649 108.097H2.13348Z" fill="#BDCCD4"/>
<path d="M2.13348 109.946V108.097H3.86649L3.86649 109.946H2.13348Z" fill="#BDCCD4"/>
<path d="M3.86649 108.097L3.86649 106.247L5.59953 106.248V108.097H3.86649Z" fill="#BDCCD4"/>
<path d="M3.86649 109.946L3.86649 108.097H5.59953V109.946H3.86649Z" fill="#BDCCD4"/>
<path d="M3.86649 111.795V109.946H5.59953L5.59951 111.795H3.86649Z" fill="#BDCCD4"/>
<path d="M2.13348 113.644L2.13348 111.795H3.86649L3.86649 113.644H2.13348Z" fill="#BDCCD4"/>
<path d="M2.13348 115.494L2.13348 113.644H3.86649L3.86649 115.494H2.13348Z" fill="#BDCCD4"/>
<path d="M2.13348 117.343V115.494H3.86649L3.86649 117.343H2.13348Z" fill="#BDCCD4"/>
<path d="M3.86649 115.494L3.86649 113.644L5.59953 113.645V115.494L3.86649 115.494Z" fill="#BDCCD4"/>
<path d="M3.86649 117.343L3.86649 115.494L5.59953 115.494L5.59953 117.343H3.86649Z" fill="#BDCCD4"/>
<path d="M3.86649 119.192V117.343H5.59953L5.59951 119.192H3.86649Z" fill="#BDCCD4"/>
<path d="M2.13348 121.041V119.192H3.86649L3.86649 121.041H2.13348Z" fill="#BDCCD4"/>
<path d="M2.13348 122.891V121.041H3.86649L3.86649 122.891H2.13348Z" fill="#BDCCD4"/>
<path d="M2.13348 124.74V122.891H3.86649L3.86649 124.74H2.13348Z" fill="#BDCCD4"/>
<path d="M3.86649 122.891L3.86649 121.041L5.59953 121.042V122.891H3.86649Z" fill="#BDCCD4"/>
<path d="M3.86649 124.74L3.86649 122.891H5.59953V124.74H3.86649Z" fill="#BDCCD4"/>
<path d="M3.86649 126.589L3.86649 124.74H5.59953L5.59951 126.589H3.86649Z" fill="#BDCCD4"/>
<path d="M2.13348 128.439L2.13348 126.589H3.86649L3.86649 128.439H2.13348Z" fill="#BDCCD4"/>
<path d="M2.13348 130.288L2.13348 128.439H3.86649L3.86649 130.288H2.13348Z" fill="#BDCCD4"/>
<path d="M2.13348 132.137V130.288H3.86649L3.86649 132.137H2.13348Z" fill="#BDCCD4"/>
<path d="M3.86649 130.288L3.86649 128.439L5.59953 128.439V130.288L3.86649 130.288Z" fill="#BDCCD4"/>
<path d="M3.86649 132.137L3.86649 130.288L5.59953 130.288V132.137H3.86649Z" fill="#BDCCD4"/>
<path d="M3.86649 133.986V132.137H5.59953L5.59951 133.986H3.86649Z" fill="#BDCCD4"/>
<path d="M2.13348 135.836L2.13348 133.986L3.86649 133.986L3.86649 135.836H2.13348Z" fill="#BDCCD4"/>
<path d="M2.13348 137.685L2.13348 135.836H3.86649L3.86649 137.685H2.13348Z" fill="#BDCCD4"/>
<path d="M2.13348 139.534V137.685H3.86649L3.86649 139.534H2.13348Z" fill="#BDCCD4"/>
<path d="M3.86649 137.685L3.86649 135.836L5.59953 135.836V137.685L3.86649 137.685Z" fill="#BDCCD4"/>
<path d="M3.86649 139.534L3.86649 137.685L5.59953 137.685L5.59953 139.534H3.86649Z" fill="#BDCCD4"/>
<path d="M3.86649 141.384L3.86649 139.534H5.59953L5.59951 141.384H3.86649Z" fill="#BDCCD4"/>
<path d="M2.13348 143.233L2.13348 141.384H3.86649V143.233H2.13348Z" fill="#BDCCD4"/>
<path d="M2.13348 145.082L2.13348 143.233H3.86649L3.86649 145.082H2.13348Z" fill="#BDCCD4"/>
<path d="M2.13348 146.931V145.082H3.86649L3.86649 146.931H2.13348Z" fill="#BDCCD4"/>
<path d="M3.86649 145.082L3.86649 143.233L5.59953 143.233V145.082H3.86649Z" fill="#BDCCD4"/>
<path d="M3.86649 146.931L3.86649 145.082H5.59953V146.931H3.86649Z" fill="#BDCCD4"/>
<path d="M3.86649 148.781L3.86649 146.931H5.59953L5.59951 148.781H3.86649Z" fill="#BDCCD4"/>
<path d="M2.13348 150.63V148.781H3.86649L3.86649 150.63H2.13348Z" fill="#BDCCD4"/>
<path d="M2.13348 152.479V150.63H3.86649L3.86649 152.479H2.13348Z" fill="#BDCCD4"/>
<path d="M2.13348 154.329V152.479H3.86649L3.86649 154.329H2.13348Z" fill="#BDCCD4"/>
<path d="M3.86649 152.479L3.86649 150.63L5.59953 150.63V152.479L3.86649 152.479Z" fill="#BDCCD4"/>
<path d="M3.86649 154.329L3.86649 152.479L5.59953 152.479V154.329H3.86649Z" fill="#BDCCD4"/>
<path d="M3.86649 156.178V154.329H5.59953L5.59951 156.178H3.86649Z" fill="#BDCCD4"/>
<path d="M2.13348 158.027L2.13348 156.178H3.86649L3.86649 158.027H2.13348Z" fill="#BDCCD4"/>
<path d="M2.13348 159.877L2.13348 158.027H3.86649L3.86649 159.877H2.13348Z" fill="#BDCCD4"/>
<path d="M2.13348 161.726V159.877H3.86649L3.86649 161.726H2.13348Z" fill="#BDCCD4"/>
<path d="M3.86649 159.877L3.86649 158.027L5.59953 158.027V159.877H3.86649Z" fill="#BDCCD4"/>
<path d="M3.86649 161.726L3.86649 159.877H5.59953L5.59953 161.726H3.86649Z" fill="#BDCCD4"/>
<path d="M3.86649 163.575L3.86649 161.726H5.59953L5.59951 163.575H3.86649Z" fill="#BDCCD4"/>
<path d="M2.13348 165.424L2.13348 163.575H3.86649V165.424H2.13348Z" fill="#BDCCD4"/>
<path d="M2.13348 167.274L2.13348 165.424H3.86649L3.86649 167.274H2.13348Z" fill="#BDCCD4"/>
<path d="M2.13348 169.123V167.274H3.86649L3.86649 169.123H2.13348Z" fill="#BDCCD4"/>
<path d="M3.86649 167.274L3.86649 165.424L5.59953 165.424V167.274H3.86649Z" fill="#BDCCD4"/>
<path d="M3.86649 169.123L3.86649 167.274H5.59953V169.123H3.86649Z" fill="#BDCCD4"/>
<path d="M3.86649 170.972L3.86649 169.123H5.59953L5.59951 170.972H3.86649Z" fill="#BDCCD4"/>
<path d="M2.13348 172.821V170.972H3.86649L3.86649 172.821H2.13348Z" fill="#BDCCD4"/>
<path d="M2.13348 174.67V172.821H3.86649L3.86649 174.67H2.13348Z" fill="#BDCCD4"/>
<path d="M2.13348 176.52V174.67H3.86649L3.86649 176.52H2.13348Z" fill="#BDCCD4"/>
<path d="M3.86649 174.67L3.86649 172.821L5.59953 172.822V174.671L3.86649 174.67Z" fill="#BDCCD4"/>
<path d="M3.86649 176.52L3.86649 174.67L5.59953 174.671V176.52H3.86649Z" fill="#BDCCD4"/>
<path d="M3.86649 178.369V176.52H5.59953L5.59951 178.369H3.86649Z" fill="#BDCCD4"/>
<path d="M2.13348 180.218L2.13348 178.369H3.86649L3.86649 180.218H2.13348Z" fill="#BDCCD4"/>
<path d="M2.13348 182.068L2.13348 180.218H3.86649L3.86649 182.068H2.13348Z" fill="#BDCCD4"/>
<path d="M2.13348 183.917V182.068H3.86649L3.86649 183.917H2.13348Z" fill="#BDCCD4"/>
<path d="M3.86649 182.068L3.86649 180.218L5.59953 180.219L5.59953 182.068H3.86649Z" fill="#BDCCD4"/>
<path d="M3.86649 183.917L3.86649 182.068H5.59953V183.917H3.86649Z" fill="#BDCCD4"/>
<path d="M3.86649 185.766L3.86649 183.917H5.59953L5.59951 185.766H3.86649Z" fill="#BDCCD4"/>
<path d="M2.13348 187.615L2.13348 185.766H3.86649V187.615H2.13348Z" fill="#BDCCD4"/>
<path d="M2.13348 189.464L2.13348 187.615H3.86649L3.86649 189.464H2.13348Z" fill="#BDCCD4"/>
<path d="M2.13348 191.314V189.464H3.86649L3.86649 191.314H2.13348Z" fill="#BDCCD4"/>
<path d="M3.86649 189.464L3.86649 187.615L5.59953 187.616V189.465L3.86649 189.464Z" fill="#BDCCD4"/>
<path d="M3.86649 191.314L3.86649 189.464L5.59953 189.465V191.314H3.86649Z" fill="#BDCCD4"/>
<path d="M3.86649 193.163V191.314H5.59953L5.59951 193.163H3.86649Z" fill="#BDCCD4"/>
<path d="M2.13348 195.012V193.163H3.86649L3.86649 195.012H2.13348Z" fill="#BDCCD4"/>
<path d="M2.13348 196.862V195.012H3.86649L3.86649 196.862H2.13348Z" fill="#BDCCD4"/>
<path d="M2.13348 198.711V196.862H3.86649L3.86649 198.711H2.13348Z" fill="#BDCCD4"/>
<path d="M3.86649 196.862L3.86649 195.012L5.59953 195.013V196.862L3.86649 196.862Z" fill="#BDCCD4"/>
<path d="M3.86649 198.711L3.86649 196.862L5.59953 196.862V198.711H3.86649Z" fill="#BDCCD4"/>
<path d="M3.86649 200.56V198.711H5.59953L5.59951 200.56H3.86649Z" fill="#BDCCD4"/>
<path d="M2.13348 202.41V200.56H3.86649L3.86649 202.41H2.13348Z" fill="#BDCCD4"/>
<path d="M2.13348 204.259V202.41H3.86649L3.86649 204.259H2.13348Z" fill="#BDCCD4"/>
<path d="M2.13348 206.108V204.259H3.86649L3.86649 206.108H2.13348Z" fill="#BDCCD4"/>
<path d="M3.86649 204.259L3.86649 202.41L5.59953 202.41L5.59953 204.259H3.86649Z" fill="#BDCCD4"/>
<path d="M3.86649 206.108L3.86649 204.259H5.59953V206.108H3.86649Z" fill="#BDCCD4"/>
<path d="M3.86649 207.957L3.86649 206.108H5.59953L5.59951 207.957H3.86649Z" fill="#BDCCD4"/>
<path d="M2.13348 209.807L2.13348 207.957H3.86649V209.807H2.13348Z" fill="#BDCCD4"/>
<path d="M2.13348 211.656L2.13348 209.807H3.86649L3.86649 211.656H2.13348Z" fill="#BDCCD4"/>
<path d="M2.13348 213.505V211.656H3.86649L3.86649 213.505H2.13348Z" fill="#BDCCD4"/>
<path d="M3.86649 211.656L3.86649 209.807L5.59953 209.807V211.656L3.86649 211.656Z" fill="#BDCCD4"/>
<path d="M3.86649 213.505L3.86649 211.656L5.59953 211.656V213.505H3.86649Z" fill="#BDCCD4"/>
<path d="M3.86649 215.354V213.505H5.59953L5.59951 215.354H3.86649Z" fill="#BDCCD4"/>
<path d="M2.13348 217.204L2.13348 215.354H3.86649L3.86649 217.204H2.13348Z" fill="#BDCCD4"/>
<path d="M2.13348 219.053L2.13348 217.204H3.86649L3.86649 219.053H2.13348Z" fill="#BDCCD4"/>
<path d="M2.13348 220.902V219.053H3.86649L3.86649 220.902H2.13348Z" fill="#BDCCD4"/>
<path d="M3.86649 219.053L3.86649 217.204L5.59953 217.204V219.053H3.86649Z" fill="#BDCCD4"/>
<path d="M3.86649 220.902L3.86649 219.053H5.59953V220.902H3.86649Z" fill="#BDCCD4"/>
<path d="M3.86649 222.752V220.902H5.59953L5.59951 222.752H3.86649Z" fill="#BDCCD4"/>
<path d="M2.13348 224.601V222.752H3.86649L3.86649 224.601H2.13348Z" fill="#BDCCD4"/>
<path d="M2.13348 226.45V224.601H3.86649L3.86649 226.45H2.13348Z" fill="#BDCCD4"/>
<path d="M2.13348 228.3V226.45H3.86649L3.86649 228.3H2.13348Z" fill="#BDCCD4"/>
<path d="M3.86649 226.45L3.86649 224.601L5.59953 224.601L5.59953 226.45H3.86649Z" fill="#BDCCD4"/>
<path d="M3.86649 228.3L3.86649 226.45H5.59953V228.3H3.86649Z" fill="#BDCCD4"/>
<path d="M3.86649 230.149L3.86649 228.3H5.59953L5.59951 230.149H3.86649Z" fill="#BDCCD4"/>
<path d="M2.13349 231.998L2.13349 230.149H3.86649L3.86649 231.998H2.13349Z" fill="#BDCCD4"/>
<path d="M2.13349 233.847L2.13349 231.998H3.86649L3.86649 233.847H2.13349Z" fill="#BDCCD4"/>
<path d="M2.13349 235.697V233.847H3.86649L3.86649 235.697H2.13349Z" fill="#BDCCD4"/>
<path d="M3.86649 233.847L3.86649 231.998L5.59953 231.998V233.848L3.86649 233.847Z" fill="#BDCCD4"/>
<path d="M3.86649 235.697L3.86649 233.847L5.59953 233.848V235.697H3.86649Z" fill="#BDCCD4"/>
<path d="M3.86649 237.546V235.697H5.59953L5.59951 237.546H3.86649Z" fill="#BDCCD4"/>
<path d="M2.13349 239.395L2.13349 237.546H3.86649L3.86649 239.395H2.13349Z" fill="#BDCCD4"/>
<path d="M2.13349 241.245L2.13349 239.395H3.86649L3.86649 241.245H2.13349Z" fill="#BDCCD4"/>
<path d="M2.13349 243.094V241.245H3.86649L3.86649 243.094H2.13349Z" fill="#BDCCD4"/>
<path d="M3.86649 241.245L3.86649 239.395L5.59953 239.395V241.245H3.86649Z" fill="#BDCCD4"/>
<path d="M3.86649 243.094L3.86649 241.245H5.59953V243.094H3.86649Z" fill="#BDCCD4"/>
<path d="M3.86649 244.943L3.86649 243.094H5.59953L5.59951 244.943H3.86649Z" fill="#BDCCD4"/>
<path d="M2.13349 246.792V244.943H3.86649V246.792H2.13349Z" fill="#BDCCD4"/>
<path d="M2.13349 248.641V246.792H3.86649L3.8665 248.641H2.13349Z" fill="#BDCCD4"/>
<path d="M2.13349 250.491V248.641H3.8665L3.86649 250.491H2.13349Z" fill="#BDCCD4"/>
<path d="M3.8665 248.641L3.86649 246.792L5.59953 246.792L5.59953 248.642L3.8665 248.641Z" fill="#BDCCD4"/>
<path d="M3.86649 250.491L3.8665 248.641L5.59953 248.642V250.491H3.86649Z" fill="#BDCCD4"/>
<path d="M3.8665 252.34L3.86649 250.491H5.59953L5.59951 252.34H3.8665Z" fill="#BDCCD4"/>
<path d="M2.13349 254.189V252.34H3.8665L3.8665 254.189H2.13349Z" fill="#BDCCD4"/>
<path d="M2.13349 256.038V254.189H3.8665L3.8665 256.038H2.13349Z" fill="#BDCCD4"/>
<path d="M2.13349 257.888V256.038H3.8665L3.8665 257.888H2.13349Z" fill="#BDCCD4"/>
<path d="M3.8665 256.038L3.8665 254.189L5.59953 254.19V256.039L3.8665 256.038Z" fill="#BDCCD4"/>
<path d="M3.8665 257.888L3.8665 256.038L5.59953 256.039V257.888H3.8665Z" fill="#BDCCD4"/>
<path d="M3.8665 259.737V257.888H5.59953L5.59951 259.737H3.8665Z" fill="#BDCCD4"/>
<path d="M2.13349 261.586L2.13349 259.737H3.8665L3.8665 261.586H2.13349Z" fill="#BDCCD4"/>
<path d="M2.13349 263.436L2.13349 261.586H3.8665L3.8665 263.436H2.13349Z" fill="#BDCCD4"/>
<path d="M2.13349 265.285V263.436H3.8665L3.8665 265.285H2.13349Z" fill="#BDCCD4"/>
<path d="M3.8665 263.436L3.8665 261.586L5.59954 261.587V263.436H3.8665Z" fill="#BDCCD4"/>
<path d="M3.8665 265.285L3.8665 263.436H5.59954V265.285H3.8665Z" fill="#BDCCD4"/>
<path d="M3.8665 267.134L3.8665 265.285H5.59954L5.59951 267.134H3.8665Z" fill="#BDCCD4"/>
<path d="M2.13349 268.983L2.13349 267.134H3.8665V268.983H2.13349Z" fill="#BDCCD4"/>
<path d="M2.13349 270.832L2.13349 268.983H3.8665L3.8665 270.832H2.13349Z" fill="#BDCCD4"/>
<path d="M2.13349 272.682V270.832H3.8665L3.8665 272.682H2.13349Z" fill="#BDCCD4"/>
<path d="M3.8665 270.832L3.8665 268.983L5.59954 268.984L5.59954 270.833L3.8665 270.832Z" fill="#BDCCD4"/>
<path d="M3.8665 272.682L3.8665 270.832L5.59954 270.833V272.682H3.8665Z" fill="#BDCCD4"/>
<path d="M3.8665 274.531L3.8665 272.682H5.59954L5.59951 274.531H3.8665Z" fill="#BDCCD4"/>
<path d="M2.13349 276.38V274.531H3.8665L3.8665 276.38H2.13349Z" fill="#BDCCD4"/>
<path d="M2.13349 278.23V276.38H3.8665L3.8665 278.23H2.13349Z" fill="#BDCCD4"/>
<path d="M2.13349 280.079V278.23H3.8665L3.8665 280.079H2.13349Z" fill="#BDCCD4"/>
<path d="M3.8665 278.23L3.8665 276.38L5.59954 276.381V278.23H3.8665Z" fill="#BDCCD4"/>
<path d="M3.8665 280.079L3.8665 278.23H5.59954V280.079H3.8665Z" fill="#BDCCD4"/>
<path d="M3.8665 281.928V280.079H5.59954L5.59951 281.928H3.8665Z" fill="#BDCCD4"/>
<path d="M2.13349 283.778L2.13349 281.928H3.8665L3.8665 283.778H2.13349Z" fill="#BDCCD4"/>
<path d="M2.13349 285.627L2.13349 283.778H3.8665L3.8665 285.627H2.13349Z" fill="#BDCCD4"/>
<path d="M2.13349 287.476V285.627H3.8665L3.8665 287.476H2.13349Z" fill="#BDCCD4"/>
<path d="M3.8665 285.627L3.8665 283.778L5.59954 283.778V285.627H3.8665Z" fill="#BDCCD4"/>
<path d="M3.8665 287.476L3.8665 285.627H5.59954V287.476H3.8665Z" fill="#BDCCD4"/>
<path d="M3.8665 289.325L3.8665 287.476H5.59954L5.59951 289.325H3.8665Z" fill="#BDCCD4"/>
<path d="M2.13349 291.175L2.13349 289.325H3.8665V291.175H2.13349Z" fill="#BDCCD4"/>
<path d="M2.13349 293.024L2.13349 291.175H3.8665L3.8665 293.024H2.13349Z" fill="#BDCCD4"/>
<path d="M2.13349 294.873V293.024H3.8665L3.8665 294.873H2.13349Z" fill="#BDCCD4"/>
<path d="M3.8665 293.024L3.8665 291.175L5.59954 291.175V293.024L3.8665 293.024Z" fill="#BDCCD4"/>
<path d="M3.8665 294.873L3.8665 293.024L5.59954 293.024V294.873H3.8665Z" fill="#BDCCD4"/>
<path d="M3.8665 296.723V294.873H5.59954L5.59951 296.723H3.8665Z" fill="#BDCCD4"/>
<path d="M2.13349 298.572V296.723H3.8665L3.8665 298.572H2.13349Z" fill="#BDCCD4"/>
<path d="M2.13349 300.421V298.572H3.8665L3.8665 300.421H2.13349Z" fill="#BDCCD4"/>
<path d="M2.13349 302.27V300.421H3.8665L3.8665 302.27H2.13349Z" fill="#BDCCD4"/>
<path d="M3.8665 300.421L3.8665 298.572L5.59954 298.572V300.421H3.8665Z" fill="#BDCCD4"/>
<path d="M3.8665 302.27L3.8665 300.421H5.59954L5.59954 302.27H3.8665Z" fill="#BDCCD4"/>
<path d="M3.8665 304.12V302.27H5.59954L5.59951 304.12H3.8665Z" fill="#BDCCD4"/>
<path d="M2.13349 305.969V304.12H3.8665L3.8665 305.969H2.13349Z" fill="#BDCCD4"/>
<path d="M2.13349 307.818L2.13349 305.969H3.8665L3.8665 307.818H2.13349Z" fill="#BDCCD4"/>
<path d="M2.13349 309.668V307.818H3.8665L3.8665 309.668H2.13349Z" fill="#BDCCD4"/>
<path d="M3.8665 307.818L3.8665 305.969L5.59954 305.969V307.818L3.8665 307.818Z" fill="#BDCCD4"/>
<path d="M3.8665 309.668L3.8665 307.818L5.59954 307.818V309.668H3.8665Z" fill="#BDCCD4"/>
<path d="M3.8665 311.517L3.8665 309.668H5.59954L5.59951 311.517H3.8665Z" fill="#BDCCD4"/>
<path d="M2.13349 313.366L2.13349 311.517H3.8665V313.366H2.13349Z" fill="#BDCCD4"/>
<path d="M2.13349 315.215L2.13349 313.366H3.8665L3.8665 315.215H2.13349Z" fill="#BDCCD4"/>
<path d="M2.13349 317.065V315.215H3.8665L3.8665 317.065H2.13349Z" fill="#BDCCD4"/>
<path d="M3.8665 315.215L3.8665 313.366L5.59954 313.366V315.216L3.8665 315.215Z" fill="#BDCCD4"/>
<path d="M3.8665 317.065L3.8665 315.215L5.59954 315.216V317.065H3.8665Z" fill="#BDCCD4"/>
<path d="M3.8665 318.914V317.065H5.59954L5.59951 318.914H3.8665Z" fill="#BDCCD4"/>
<path d="M2.13349 320.763L2.13349 318.914H3.8665L3.8665 320.763H2.13349Z" fill="#BDCCD4"/>
<path d="M2.13349 322.613L2.13349 320.763H3.8665L3.8665 322.613H2.13349Z" fill="#BDCCD4"/>
<path d="M2.13349 324.462V322.613H3.8665L3.8665 324.462H2.13349Z" fill="#BDCCD4"/>
<path d="M3.8665 322.613L3.8665 320.763L5.59954 320.763V322.613H3.8665Z" fill="#BDCCD4"/>
<path d="M3.8665 324.462L3.8665 322.613H5.59954L5.59954 324.462H3.8665Z" fill="#BDCCD4"/>
<path d="M3.8665 326.311V324.462H5.59954L5.59951 326.311H3.8665Z" fill="#BDCCD4"/>
<path d="M2.13349 328.16V326.311H3.8665L3.8665 328.16H2.13349Z" fill="#BDCCD4"/>
<path d="M2.13349 330.009V328.16H3.8665L3.8665 330.009H2.13349Z" fill="#BDCCD4"/>
<path d="M2.13349 331.859V330.009H3.8665L3.8665 331.859H2.13349Z" fill="#BDCCD4"/>
<path d="M3.8665 330.009L3.8665 328.16L5.59954 328.16V330.01L3.8665 330.009Z" fill="#BDCCD4"/>
<path d="M3.8665 331.859L3.8665 330.009L5.59954 330.01V331.859H3.8665Z" fill="#BDCCD4"/>
<path d="M3.8665 333.708L3.8665 331.859H5.59954L5.59952 333.708H3.8665Z" fill="#BDCCD4"/>
<path d="M2.13349 335.557L2.13349 333.708H3.8665L3.8665 335.557H2.13349Z" fill="#BDCCD4"/>
<path d="M2.13349 337.407L2.13349 335.557H3.8665L3.8665 337.407H2.13349Z" fill="#BDCCD4"/>
<path d="M2.13349 339.256V337.407H3.8665L3.8665 339.256H2.13349Z" fill="#BDCCD4"/>
<path d="M3.8665 337.407L3.8665 335.557L5.59954 335.558V337.407H3.8665Z" fill="#BDCCD4"/>
<path d="M3.8665 339.256L3.8665 337.407H5.59954V339.256H3.8665Z" fill="#BDCCD4"/>
<path d="M3.8665 341.105V339.256H5.59954L5.59952 341.105H3.8665Z" fill="#BDCCD4"/>
<path d="M2.13349 342.954L2.13349 341.105H3.8665L3.8665 342.954H2.13349Z" fill="#BDCCD4"/>
<path d="M2.13349 344.804L2.13349 342.954H3.8665L3.8665 344.804H2.13349Z" fill="#BDCCD4"/>
<path d="M2.13349 346.653V344.804H3.8665L3.8665 346.653H2.13349Z" fill="#BDCCD4"/>
<path d="M3.8665 344.804L3.8665 342.954L5.59954 342.955V344.804H3.8665Z" fill="#BDCCD4"/>
<path d="M3.8665 346.653L3.8665 344.804H5.59954L5.59954 346.653H3.8665Z" fill="#BDCCD4"/>
<path d="M3.8665 348.502V346.653H5.59954L5.59952 348.502H3.8665Z" fill="#BDCCD4"/>
<path d="M2.13349 350.351V348.502H3.8665L3.8665 350.351H2.13349Z" fill="#BDCCD4"/>
<path d="M2.13349 352.201V350.351H3.8665L3.8665 352.201H2.13349Z" fill="#BDCCD4"/>
<path d="M2.13349 354.05V352.201H3.8665L3.8665 354.05H2.13349Z" fill="#BDCCD4"/>
<path d="M3.8665 352.201L3.8665 350.351L5.59954 350.352V352.201L3.8665 352.201Z" fill="#BDCCD4"/>
<path d="M3.8665 354.05L3.8665 352.201L5.59954 352.201V354.05H3.8665Z" fill="#BDCCD4"/>
<path d="M3.8665 355.899L3.8665 354.05H5.59954L5.59952 355.899H3.8665Z" fill="#BDCCD4"/>
<path d="M2.13349 357.749V355.899H3.8665L3.8665 357.749H2.13349Z" fill="#BDCCD4"/>
<path d="M2.13349 359.598L2.13349 357.749H3.8665L3.8665 359.598H2.13349Z" fill="#BDCCD4"/>
<path d="M2.13349 361.447V359.598H3.8665L3.8665 361.447H2.13349Z" fill="#BDCCD4"/>
<path d="M3.8665 359.598L3.8665 357.749L5.59954 357.749V359.598H3.8665Z" fill="#BDCCD4"/>
<path d="M3.8665 361.447L3.8665 359.598H5.59954V361.447H3.8665Z" fill="#BDCCD4"/>
<path d="M3.8665 363.296V361.447H5.59954L5.59952 363.296H3.8665Z" fill="#BDCCD4"/>
<path d="M2.13349 365.146L2.13349 363.296H3.8665L3.8665 365.146H2.13349Z" fill="#BDCCD4"/>
<path d="M2.13349 366.995L2.13349 365.146H3.8665L3.8665 366.995H2.13349Z" fill="#BDCCD4"/>
<path d="M2.13349 368.844V366.995H3.8665L3.8665 368.844H2.13349Z" fill="#BDCCD4"/>
<path d="M3.8665 366.995L3.8665 365.146L5.59954 365.146V366.995L3.8665 366.995Z" fill="#BDCCD4"/>
<path d="M3.8665 368.844L3.8665 366.995L5.59954 366.995L5.59954 368.844H3.8665Z" fill="#BDCCD4"/>
<path d="M3.8665 370.693L3.8665 368.844H5.59954L5.59952 370.693H3.8665Z" fill="#BDCCD4"/>
<path d="M2.13349 372.543L2.13349 370.693H3.8665V372.543H2.13349Z" fill="#BDCCD4"/>
<path d="M2.13349 374.392L2.13349 372.543H3.8665L3.8665 374.392H2.13349Z" fill="#BDCCD4"/>
<path d="M2.13349 376.241V374.392H3.8665L3.8665 376.241H2.13349Z" fill="#BDCCD4"/>
<path d="M3.8665 374.392L3.8665 372.543L5.59954 372.543V374.392L3.8665 374.392Z" fill="#BDCCD4"/>
<path d="M3.8665 376.241L3.8665 374.392L5.59954 374.392V376.241H3.8665Z" fill="#BDCCD4"/>
<path d="M3.8665 378.091L3.8665 376.241H5.59954L5.59952 378.091H3.8665Z" fill="#BDCCD4"/>
<path d="M2.13349 379.94V378.091H3.8665L3.8665 379.94H2.13349Z" fill="#BDCCD4"/>
<path d="M2.13349 381.789V379.94H3.8665L3.8665 381.789H2.13349Z" fill="#BDCCD4"/>
<path d="M2.13349 383.638V381.789H3.8665L3.8665 383.638H2.13349Z" fill="#BDCCD4"/>
<path d="M3.8665 381.789L3.8665 379.94L5.59954 379.94V381.789H3.8665Z" fill="#BDCCD4"/>
<path d="M3.8665 383.638L3.8665 381.789H5.59954V383.638H3.8665Z" fill="#BDCCD4"/>
<path d="M3.8665 385.488V383.638H5.59954L5.59952 385.488H3.8665Z" fill="#BDCCD4"/>
<path d="M2.13349 387.337L2.13349 385.488H3.8665L3.8665 387.337H2.13349Z" fill="#BDCCD4"/>
<path d="M2.13349 389.186L2.13349 387.337H3.8665L3.8665 389.186H2.13349Z" fill="#BDCCD4"/>
<path d="M2.13349 391.036V389.186H3.8665L3.8665 391.036H2.13349Z" fill="#BDCCD4"/>
<path d="M3.8665 389.186L3.8665 387.337L5.59954 387.337V389.186L3.8665 389.186Z" fill="#BDCCD4"/>
<path d="M3.8665 391.036L3.8665 389.186L5.59954 389.186L5.59954 391.036H3.8665Z" fill="#BDCCD4"/>
<path d="M3.8665 392.885L3.8665 391.036H5.59954L5.59952 392.885H3.8665Z" fill="#BDCCD4"/>
<path d="M2.13349 394.734L2.13349 392.885H3.8665V394.734H2.13349Z" fill="#BDCCD4"/>
<path d="M2.13349 396.584L2.13349 394.734H3.8665L3.8665 396.584H2.13349Z" fill="#BDCCD4"/>
<path d="M2.13349 398.433V396.584H3.8665L3.8665 398.433H2.13349Z" fill="#BDCCD4"/>
<path d="M3.8665 396.584L3.8665 394.734L5.59954 394.734V396.584H3.8665Z" fill="#BDCCD4"/>
<path d="M3.8665 398.433L3.8665 396.584H5.59954V398.433H3.8665Z" fill="#BDCCD4"/>
<path d="M3.8665 400.282V398.433H5.59954L5.59952 400.282H3.8665Z" fill="#BDCCD4"/>
<path d="M2.13349 402.131V400.282H3.8665L3.8665 402.131H2.13349Z" fill="#BDCCD4"/>
<path d="M2.13349 403.981V402.131H3.8665L3.8665 403.981H2.13349Z" fill="#BDCCD4"/>
<path d="M2.13349 405.83V403.981H3.8665L3.8665 405.83H2.13349Z" fill="#BDCCD4"/>
<path d="M3.8665 403.981L3.8665 402.131L5.59954 402.131V403.981H3.8665Z" fill="#BDCCD4"/>
<path d="M3.8665 405.83L3.8665 403.981H5.59954V405.83H3.8665Z" fill="#BDCCD4"/>
<path d="M3.8665 407.679V405.83H5.59954L5.59952 407.679H3.8665Z" fill="#BDCCD4"/>
<path d="M2.13349 409.528V407.679H3.8665L3.8665 409.528H2.13349Z" fill="#BDCCD4"/>
<path d="M2.13349 411.377L2.13349 409.528H3.8665L3.8665 411.377H2.13349Z" fill="#BDCCD4"/>
<path d="M2.13349 413.227V411.377H3.8665L3.8665 413.227H2.13349Z" fill="#BDCCD4"/>
<path d="M3.8665 411.377L3.8665 409.528L5.59954 409.529L5.59954 411.378L3.8665 411.377Z" fill="#BDCCD4"/>
<path d="M3.8665 413.227L3.8665 411.377L5.59954 411.378V413.227H3.8665Z" fill="#BDCCD4"/>
<path d="M3.8665 415.076L3.8665 413.227H5.59954L5.59952 415.076H3.8665Z" fill="#BDCCD4"/>
<path d="M2.13349 416.925L2.13349 415.076H3.8665V416.925H2.13349Z" fill="#BDCCD4"/>
<path d="M2.13349 418.775L2.13349 416.925H3.8665L3.8665 418.775H2.13349Z" fill="#BDCCD4"/>
<path d="M2.13349 420.624V418.775H3.8665L3.8665 420.624H2.13349Z" fill="#BDCCD4"/>
<path d="M3.8665 418.775L3.8665 416.925L5.59954 416.926V418.775H3.8665Z" fill="#BDCCD4"/>
<path d="M3.8665 420.624L3.8665 418.775H5.59954V420.624H3.8665Z" fill="#BDCCD4"/>
<path d="M3.8665 422.473V420.624H5.59954L5.59952 422.473H3.8665Z" fill="#BDCCD4"/>
<path d="M2.13349 424.322L2.13349 422.473H3.8665L3.8665 424.322H2.13349Z" fill="#BDCCD4"/>
<path d="M2.13349 426.171L2.13349 424.322H3.8665L3.8665 426.171H2.13349Z" fill="#BDCCD4"/>
<path d="M2.13349 428.021V426.171H3.8665L3.8665 428.021H2.13349Z" fill="#BDCCD4"/>
<path d="M3.8665 426.171L3.8665 424.322L5.59954 424.323V426.172L3.8665 426.171Z" fill="#BDCCD4"/>
<path d="M3.8665 428.021L3.8665 426.171L5.59954 426.172V428.021H3.8665Z" fill="#BDCCD4"/>
<path d="M3.8665 429.87V428.021H5.59954L5.59952 429.87H3.8665Z" fill="#BDCCD4"/>
<path d="M2.13349 431.719V429.87H3.8665L3.8665 431.719H2.13349Z" fill="#BDCCD4"/>
<path d="M2.13349 433.569V431.719H3.8665L3.8665 433.569H2.13349Z" fill="#BDCCD4"/>
<path d="M2.13349 435.418V433.569H3.8665L3.8665 435.418H2.13349Z" fill="#BDCCD4"/>
<path d="M3.8665 433.569L3.8665 431.719L5.59954 431.72L5.59954 433.569L3.8665 433.569Z" fill="#BDCCD4"/>
<path d="M3.8665 435.418L3.8665 433.569L5.59954 433.569V435.418H3.8665Z" fill="#BDCCD4"/>
<path d="M3.8665 437.267L3.8665 435.418H5.59954L5.59952 437.267H3.8665Z" fill="#BDCCD4"/>
<path d="M2.13349 439.117L2.13349 437.267H3.8665L3.8665 439.117H2.13349Z" fill="#BDCCD4"/>
<path d="M2.13349 440.966L2.13349 439.117H3.8665L3.8665 440.966H2.13349Z" fill="#BDCCD4"/>
<path d="M2.13349 442.815V440.966H3.8665L3.8665 442.815H2.13349Z" fill="#BDCCD4"/>
<path d="M3.8665 440.966L3.8665 439.117L5.59954 439.117V440.966H3.8665Z" fill="#BDCCD4"/>
<path d="M3.8665 442.815L3.8665 440.966H5.59954V442.815H3.8665Z" fill="#BDCCD4"/>
<path d="M3.8665 444.664V442.815H5.59954L5.59952 444.664H3.8665Z" fill="#BDCCD4"/>
<path d="M2.13349 446.514L2.13349 444.664H3.8665L3.8665 446.514H2.13349Z" fill="#BDCCD4"/>
<path d="M2.13349 448.363L2.13349 446.514H3.8665L3.8665 448.363H2.13349Z" fill="#BDCCD4"/>
<path d="M2.13349 450.212V448.363H3.8665L3.8665 450.212H2.13349Z" fill="#BDCCD4"/>
<path d="M3.8665 448.363L3.8665 446.514L5.59954 446.514V448.363L3.8665 448.363Z" fill="#BDCCD4"/>
<path d="M3.8665 450.212L3.8665 448.363L5.59954 448.363V450.212H3.8665Z" fill="#BDCCD4"/>
<path d="M3.8665 452.061V450.212H5.59954L5.59952 452.061H3.8665Z" fill="#BDCCD4"/>
<path d="M2.13349 453.911V452.061H3.8665L3.8665 453.911H2.13349Z" fill="#BDCCD4"/>
<path d="M2.13349 455.76V453.911H3.8665L3.8665 455.76H2.13349Z" fill="#BDCCD4"/>
<path d="M2.13349 457.609V455.76H3.8665L3.8665 457.609H2.13349Z" fill="#BDCCD4"/>
<path d="M3.8665 455.76L3.8665 453.911L5.59954 453.911L5.59954 455.76H3.8665Z" fill="#BDCCD4"/>
<path d="M3.8665 457.609L3.8665 455.76H5.59954V457.609H3.8665Z" fill="#BDCCD4"/>
<path d="M3.8665 459.459L3.8665 457.609H5.59954L5.59952 459.459H3.8665Z" fill="#BDCCD4"/>
<path d="M2.1335 461.308V459.459H3.8665L3.8665 461.308H2.1335Z" fill="#BDCCD4"/>
<path d="M2.1335 463.157L2.1335 461.308H3.8665L3.8665 463.157H2.1335Z" fill="#BDCCD4"/>
<path d="M2.1335 465.007V463.157H3.8665L3.8665 465.007H2.1335Z" fill="#BDCCD4"/>
<path d="M3.8665 463.157L3.8665 461.308L5.59954 461.308V463.157H3.8665Z" fill="#BDCCD4"/>
<path d="M3.8665 465.007L3.8665 463.157H5.59954V465.007H3.8665Z" fill="#BDCCD4"/>
<path d="M3.8665 466.856V465.007H5.59954L5.59952 466.856H3.8665Z" fill="#BDCCD4"/>
<path d="M2.1335 468.705L2.1335 466.856H3.8665L3.8665 468.705H2.1335Z" fill="#BDCCD4"/>
<path d="M2.1335 470.554L2.1335 468.705H3.8665L3.8665 470.554H2.1335Z" fill="#BDCCD4"/>
<path d="M2.1335 472.404V470.554H3.8665L3.8665 472.404H2.1335Z" fill="#BDCCD4"/>
<path d="M3.8665 470.554L3.8665 468.705L5.59954 468.705V470.555L3.8665 470.554Z" fill="#BDCCD4"/>
<path d="M3.8665 472.404L3.8665 470.554L5.59954 470.555V472.404H3.8665Z" fill="#BDCCD4"/>
<path d="M3.8665 474.253L3.8665 472.404H5.59954L5.59952 474.253H3.8665Z" fill="#BDCCD4"/>
<path d="M2.1335 476.102L2.1335 474.253H3.8665V476.102H2.1335Z" fill="#BDCCD4"/>
<path d="M2.1335 477.952L2.1335 476.102H3.8665L3.86651 477.952H2.1335Z" fill="#BDCCD4"/>
<path d="M2.1335 479.801V477.952H3.86651L3.8665 479.801H2.1335Z" fill="#BDCCD4"/>
<path d="M3.86651 477.952L3.8665 476.102L5.59954 476.102L5.59955 477.952H3.86651Z" fill="#BDCCD4"/>
<path d="M3.8665 479.801L3.86651 477.952H5.59955V479.801H3.8665Z" fill="#BDCCD4"/>
<path d="M3.86651 481.65L3.8665 479.801H5.59955L5.59952 481.65H3.86651Z" fill="#BDCCD4"/>
<path d="M2.1335 483.499V481.65H3.86651L3.86651 483.499H2.1335Z" fill="#BDCCD4"/>
<path d="M2.1335 485.348V483.499H3.86651L3.86651 485.348H2.1335Z" fill="#BDCCD4"/>
<path d="M2.1335 487.198V485.348H3.86651L3.86651 487.198H2.1335Z" fill="#BDCCD4"/>
<path d="M3.86651 485.348L3.86651 483.499L5.59955 483.499V485.349L3.86651 485.348Z" fill="#BDCCD4"/>
<path d="M3.86651 487.198L3.86651 485.348L5.59955 485.349V487.198H3.86651Z" fill="#BDCCD4"/>
<path d="M3.86651 489.047V487.198H5.59955L5.59952 489.047H3.86651Z" fill="#BDCCD4"/>
<path d="M2.1335 490.896L2.1335 489.047H3.86651L3.86651 490.896H2.1335Z" fill="#BDCCD4"/>
<path d="M2.1335 492.745L2.1335 490.896H3.86651L3.86651 492.745H2.1335Z" fill="#BDCCD4"/>
<path d="M2.1335 494.595V492.745H3.86651L3.86651 494.595H2.1335Z" fill="#BDCCD4"/>
<path d="M3.86651 492.745L3.86651 490.896L5.59955 490.897V492.746L3.86651 492.745Z" fill="#BDCCD4"/>
<path d="M3.86651 494.595L3.86651 492.745L5.59955 492.746V494.595H3.86651Z" fill="#BDCCD4"/>
<path d="M3.86651 496.444L3.86651 494.595H5.59955L5.59952 496.444H3.86651Z" fill="#BDCCD4"/>
<path d="M2.1335 498.293L2.1335 496.444H3.86651V498.293H2.1335Z" fill="#BDCCD4"/>
<path d="M2.1335 500.143L2.1335 498.293H3.86651L3.86651 500.143H2.1335Z" fill="#BDCCD4"/>
<path d="M2.1335 501.992V500.143H3.86651L3.86651 501.992H2.1335Z" fill="#BDCCD4"/>
<path d="M3.86651 500.143L3.86651 498.293L5.59955 498.294V500.143H3.86651Z" fill="#BDCCD4"/>
<path d="M3.86651 501.992L3.86651 500.143H5.59955V501.992H3.86651Z" fill="#BDCCD4"/>
<path d="M3.86651 503.841V501.992H5.59955L5.59952 503.841H3.86651Z" fill="#BDCCD4"/>
<path d="M2.1335 505.69V503.841H3.86651L3.86651 505.69H2.1335Z" fill="#BDCCD4"/>
<path d="M2.1335 507.54V505.69H3.86651L3.86651 507.54H2.1335Z" fill="#BDCCD4"/>
<path d="M2.1335 509.389V507.54H3.86651L3.86651 509.389H2.1335Z" fill="#BDCCD4"/>
<path d="M3.86651 507.54L3.86651 505.69L5.59955 505.691V507.54L3.86651 507.54Z" fill="#BDCCD4"/>
<path d="M3.86651 509.389L3.86651 507.54L5.59955 507.54L5.59955 509.389H3.86651Z" fill="#BDCCD4"/>
<path d="M3.86651 511.238V509.389H5.59955L5.59952 511.238H3.86651Z" fill="#BDCCD4"/>
<path d="M2.1335 513.088L2.1335 511.238H3.86651L3.86651 513.088H2.1335Z" fill="#BDCCD4"/>
<path d="M2.1335 514.937L2.1335 513.088H3.86651L3.86651 514.937H2.1335Z" fill="#BDCCD4"/>
<path d="M2.1335 516.786V514.937H3.86651L3.86651 516.786H2.1335Z" fill="#BDCCD4"/>
<path d="M3.86651 514.937L3.86651 513.088L5.59955 513.088V514.937H3.86651Z" fill="#BDCCD4"/>
<path d="M3.86651 516.786L3.86651 514.937H5.59955V516.786H3.86651Z" fill="#BDCCD4"/>
<path d="M3.86651 518.635L3.86651 516.786H5.59955L5.59952 518.635H3.86651Z" fill="#BDCCD4"/>
<path d="M2.1335 520.485L2.1335 518.635L3.86651 518.635V520.485H2.1335Z" fill="#BDCCD4"/>
<path d="M2.1335 522.334L2.1335 520.485H3.86651L3.86651 522.334H2.1335Z" fill="#BDCCD4"/>
<path d="M2.1335 524.183V522.334H3.86651L3.86651 524.183H2.1335Z" fill="#BDCCD4"/>
<path d="M3.86651 522.334L3.86651 520.485L5.59955 520.485V522.334H3.86651Z" fill="#BDCCD4"/>
<path d="M3.86651 524.183L3.86651 522.334H5.59955V524.183H3.86651Z" fill="#BDCCD4"/>
<path d="M3.86651 526.032V524.183H5.59955L5.59952 526.032H3.86651Z" fill="#BDCCD4"/>
<path d="M2.1335 527.882L2.1335 526.032L3.86651 526.032L3.86651 527.882H2.1335Z" fill="#BDCCD4"/>
<path d="M2.1335 529.731L2.1335 527.882H3.86651L3.86651 529.731H2.1335Z" fill="#BDCCD4"/>
<path d="M2.1335 531.58V529.731H3.86651L3.86651 531.58H2.1335Z" fill="#BDCCD4"/>
<path d="M3.86651 529.731L3.86651 527.882L5.59955 527.882V529.731L3.86651 529.731Z" fill="#BDCCD4"/>
<path d="M3.86651 531.58L3.86651 529.731L5.59955 529.731L5.59955 531.58H3.86651Z" fill="#BDCCD4"/>
<path d="M3.86651 533.43V531.58H5.59955L5.59952 533.43H3.86651Z" fill="#BDCCD4"/>
<path d="M2.1335 535.279V533.43L3.86651 533.43L3.86651 535.279H2.1335Z" fill="#BDCCD4"/>
<path d="M2.1335 537.128V535.279H3.86651L3.86651 537.128H2.1335Z" fill="#BDCCD4"/>
<path d="M2.1335 538.977V537.128H3.86651L3.86651 538.977H2.1335Z" fill="#BDCCD4"/>
<path d="M3.86651 537.128L3.86651 535.279L5.59955 535.279V537.128H3.86651Z" fill="#BDCCD4"/>
<path d="M3.86651 538.977L3.86651 537.128H5.59955V538.977H3.86651Z" fill="#BDCCD4"/>
<path d="M3.86651 540.827L3.86651 538.977H5.59955L5.59952 540.827H3.86651Z" fill="#BDCCD4"/>
<path d="M2.1335 542.676L2.1335 540.827L3.86651 540.827V542.676H2.1335Z" fill="#BDCCD4"/>
<path d="M2.1335 544.525L2.1335 542.676H3.86651L3.86651 544.525H2.1335Z" fill="#BDCCD4"/>
<path d="M2.1335 546.375V544.525H3.86651L3.86651 546.375H2.1335Z" fill="#BDCCD4"/>
<path d="M3.86651 544.525L3.86651 542.676L5.59955 542.676V544.526L3.86651 544.525Z" fill="#BDCCD4"/>
<path d="M3.86651 546.375L3.86651 544.525L5.59955 544.526V546.375H3.86651Z" fill="#BDCCD4"/>
<path d="M3.86651 548.224V546.375H5.59955L5.59952 548.224H3.86651Z" fill="#BDCCD4"/>
<path d="M2.1335 550.073L2.1335 548.224L3.86651 548.224L3.86651 550.073H2.1335Z" fill="#BDCCD4"/>
<path d="M2.1335 551.922L2.1335 550.073H3.86651L3.86651 551.922H2.1335Z" fill="#BDCCD4"/>
<path d="M2.1335 553.772V551.922H3.86651L3.86651 553.772H2.1335Z" fill="#BDCCD4"/>
<path d="M3.86651 551.922L3.86651 550.073L5.59955 550.073V551.923L3.86651 551.922Z" fill="#BDCCD4"/>
<path d="M3.86651 553.772L3.86651 551.922L5.59955 551.923L5.59955 553.772H3.86651Z" fill="#BDCCD4"/>
<path d="M3.86651 555.621V553.772H5.59955L5.59952 555.621H3.86651Z" fill="#BDCCD4"/>
<path d="M2.1335 557.47V555.621L3.86651 555.621L3.86651 557.47H2.1335Z" fill="#BDCCD4"/>
<path d="M2.1335 559.32V557.47H3.86651L3.86651 559.32H2.1335Z" fill="#BDCCD4"/>
<path d="M2.1335 561.169V559.32H3.86651L3.86651 561.169H2.1335Z" fill="#BDCCD4"/>
<path d="M3.86651 559.32L3.86651 557.47L5.59955 557.47V559.32H3.86651Z" fill="#BDCCD4"/>
<path d="M3.86651 561.169L3.86651 559.32H5.59955V561.169H3.86651Z" fill="#BDCCD4"/>
<path d="M3.86651 563.018L3.86651 561.169H5.59955L5.59953 563.018H3.86651Z" fill="#BDCCD4"/>
<path d="M2.1335 564.867L2.1335 563.018L3.86651 563.018L3.86651 564.867H2.1335Z" fill="#BDCCD4"/>
<path d="M2.1335 566.716L2.1335 564.867H3.86651L3.86651 566.716H2.1335Z" fill="#BDCCD4"/>
<path d="M2.1335 568.566V566.716H3.86651L3.86651 568.566H2.1335Z" fill="#BDCCD4"/>
<path d="M3.86651 566.716L3.86651 564.867L5.59955 564.868V566.717L3.86651 566.716Z" fill="#BDCCD4"/>
<path d="M3.86651 568.566L3.86651 566.716L5.59955 566.717V568.566H3.86651Z" fill="#BDCCD4"/>
<path d="M3.86651 570.415V568.566H5.59955L5.59953 570.415H3.86651Z" fill="#BDCCD4"/>
<path d="M2.1335 572.264L2.1335 570.415L3.86651 570.415L3.86651 572.264H2.1335Z" fill="#BDCCD4"/>
<path d="M2.1335 574.114L2.1335 572.264H3.86651L3.86651 574.114H2.1335Z" fill="#BDCCD4"/>
<path d="M2.1335 575.963V574.114H3.86651L3.86651 575.963H2.1335Z" fill="#BDCCD4"/>
<path d="M3.86651 574.114L3.86651 572.264L5.59955 572.265V574.114H3.86651Z" fill="#BDCCD4"/>
<path d="M3.86651 575.963L3.86651 574.114H5.59955L5.59955 575.963H3.86651Z" fill="#BDCCD4"/>
<path d="M3.86651 577.812L3.86651 575.963H5.59955L5.59953 577.812H3.86651Z" fill="#BDCCD4"/>
<path d="M2.1335 579.661L2.1335 577.812L3.86651 577.812V579.661H2.1335Z" fill="#BDCCD4"/>
<path d="M2.1335 581.511L2.1335 579.661H3.86651L3.86651 581.511H2.1335Z" fill="#BDCCD4"/>
<path d="M2.1335 583.36V581.511H3.86651L3.86651 583.36H2.1335Z" fill="#BDCCD4"/>
<path d="M3.86651 581.511L3.86651 579.661L5.59955 579.662V581.511H3.86651Z" fill="#BDCCD4"/>
<path d="M3.86651 583.36L3.86651 581.511H5.59955V583.36H3.86651Z" fill="#BDCCD4"/>
<path d="M3.86651 585.209L3.86651 583.36H5.59955L5.59953 585.209H3.86651Z" fill="#BDCCD4"/>
<path d="M2.1335 587.058V585.209L3.86651 585.209L3.86651 587.058H2.1335Z" fill="#BDCCD4"/>
<path d="M2.1335 588.908V587.058H3.86651L3.86651 588.908H2.1335Z" fill="#BDCCD4"/>
<path d="M2.1335 590.757V588.908H3.86651L3.86651 590.757H2.1335Z" fill="#BDCCD4"/>
<path d="M3.86651 588.908L3.86651 587.058L5.59955 587.059V588.908L3.86651 588.908Z" fill="#BDCCD4"/>
<path d="M3.86651 590.757L3.86651 588.908L5.59955 588.908V590.757H3.86651Z" fill="#BDCCD4"/>
<path d="M3.86651 592.606V590.757H5.59955L5.59953 592.606H3.86651Z" fill="#BDCCD4"/>
<path d="M2.1335 594.456L2.1335 592.606L3.86651 592.606L3.86651 594.456H2.1335Z" fill="#BDCCD4"/>
<path d="M2.1335 596.305L2.1335 594.456H3.86651L3.86651 596.305H2.1335Z" fill="#BDCCD4"/>
<path d="M2.1335 598.154V596.305H3.86651L3.86651 598.154H2.1335Z" fill="#BDCCD4"/>
<path d="M3.86651 596.305L3.86651 594.456L5.59955 594.456V596.305H3.86651Z" fill="#BDCCD4"/>
<path d="M3.86651 598.154L3.86651 596.305H5.59955L5.59955 598.154H3.86651Z" fill="#BDCCD4"/>
<path d="M3.86651 600.003L3.86651 598.154H5.59955L5.59953 600.003H3.86651Z" fill="#BDCCD4"/>
<path d="M2.1335 601.853L2.1335 600.003L3.86651 600.003V601.853H2.1335Z" fill="#BDCCD4"/>
<path d="M2.1335 603.702L2.1335 601.853H3.86651L3.86651 603.702H2.1335Z" fill="#BDCCD4"/>
<path d="M2.1335 605.551V603.702H3.86651L3.86651 605.551H2.1335Z" fill="#BDCCD4"/>
<path d="M3.86651 603.702L3.86651 601.853L5.59955 601.853V603.702L3.86651 603.702Z" fill="#BDCCD4"/>
<path d="M3.86651 605.551L3.86651 603.702L5.59955 603.702V605.551H3.86651Z" fill="#BDCCD4"/>
<path d="M3.86651 607.4L3.86651 605.551H5.59955L5.59953 607.4H3.86651Z" fill="#BDCCD4"/>
<path d="M2.1335 609.25V607.401L3.86651 607.4L3.86651 609.25H2.1335Z" fill="#BDCCD4"/>
<path d="M2.1335 611.099V609.25H3.86651L3.86651 611.099H2.1335Z" fill="#BDCCD4"/>
<path d="M2.1335 612.948V611.099H3.86651L3.86651 612.948H2.1335Z" fill="#BDCCD4"/>
<path d="M3.86651 611.099L3.86651 609.25L5.59955 609.25V611.099L3.86651 611.099Z" fill="#BDCCD4"/>
<path d="M3.86651 612.948L3.86651 611.099L5.59955 611.099V612.948H3.86651Z" fill="#BDCCD4"/>
<path d="M3.86651 614.798V612.948H5.59955L5.59953 614.798H3.86651Z" fill="#BDCCD4"/>
<path d="M2.1335 616.647L2.1335 614.798L3.86651 614.798L3.86651 616.647H2.1335Z" fill="#BDCCD4"/>
<path d="M2.1335 618.496L2.1335 616.647H3.86651L3.86651 618.496H2.1335Z" fill="#BDCCD4"/>
<path d="M2.1335 620.346V618.496H3.86651L3.86651 620.346H2.1335Z" fill="#BDCCD4"/>
<path d="M3.86651 618.496L3.86651 616.647L5.59955 616.647L5.59955 618.496H3.86651Z" fill="#BDCCD4"/>
<path d="M3.86651 620.346L3.86651 618.496H5.59955V620.346H3.86651Z" fill="#BDCCD4"/>
<path d="M3.86651 622.195L3.86651 620.346H5.59955L5.59953 622.195H3.86651Z" fill="#BDCCD4"/>
<path d="M2.1335 624.044L2.1335 622.195L3.86651 622.195V624.044H2.1335Z" fill="#BDCCD4"/>
<path d="M2.1335 625.893L2.1335 624.044H3.86651L3.86651 625.893H2.1335Z" fill="#BDCCD4"/>
<path d="M2.1335 627.743V625.893H3.86651L3.86651 627.743H2.1335Z" fill="#BDCCD4"/>
<path d="M3.86651 625.893L3.86651 624.044L5.59955 624.044V625.894L3.86651 625.893Z" fill="#BDCCD4"/>
<path d="M3.86651 627.743L3.86651 625.893L5.59955 625.894V627.743H3.86651Z" fill="#BDCCD4"/>
<path d="M3.86651 629.592V627.743H5.59955L5.59953 629.592H3.86651Z" fill="#BDCCD4"/>
<path d="M2.1335 631.441L2.1335 629.592L3.86651 629.592L3.86651 631.441H2.1335Z" fill="#BDCCD4"/>
<path d="M2.1335 633.291L2.1335 631.441H3.86651L3.86651 633.291H2.1335Z" fill="#BDCCD4"/>
<path d="M2.1335 635.14V633.291H3.86651L3.86651 635.14H2.1335Z" fill="#BDCCD4"/>
<path d="M3.86651 633.291L3.86651 631.441L5.59955 631.441V633.291H3.86651Z" fill="#BDCCD4"/>
<path d="M3.86651 635.14L3.86651 633.291H5.59955V635.14H3.86651Z" fill="#BDCCD4"/>
<path d="M3.86651 636.989V635.14H5.59955L5.59953 636.989H3.86651Z" fill="#BDCCD4"/>
<path d="M2.1335 638.838V636.989L3.86651 636.989L3.86651 638.838H2.1335Z" fill="#BDCCD4"/>
<path d="M2.1335 640.688V638.838H3.86651L3.86651 640.688H2.1335Z" fill="#BDCCD4"/>
<path d="M2.1335 642.537V640.688H3.86651L3.86651 642.537H2.1335Z" fill="#BDCCD4"/>
<path d="M3.86651 640.688L3.86651 638.838L5.59955 638.839L5.59955 640.688H3.86651Z" fill="#BDCCD4"/>
<path d="M3.86651 642.537L3.86651 640.688H5.59955V642.537H3.86651Z" fill="#BDCCD4"/>
<path d="M3.86651 644.386L3.86651 642.537H5.59955L5.59953 644.386H3.86651Z" fill="#BDCCD4"/>
<path d="M2.1335 646.235L2.1335 644.386L3.86651 644.386V646.235H2.1335Z" fill="#BDCCD4"/>
<path d="M2.1335 648.084L2.1335 646.235H3.86651L3.86651 648.084H2.1335Z" fill="#BDCCD4"/>
<path d="M2.1335 649.934V648.084H3.86651L3.86651 649.934H2.1335Z" fill="#BDCCD4"/>
<path d="M3.86651 648.084L3.86651 646.235L5.59955 646.236V648.085L3.86651 648.084Z" fill="#BDCCD4"/>
<path d="M3.86651 649.934L3.86651 648.084L5.59955 648.085V649.934H3.86651Z" fill="#BDCCD4"/>
<path d="M3.86651 651.783V649.934H5.59955L5.59953 651.783H3.86651Z" fill="#BDCCD4"/>
<path d="M2.1335 653.632L2.1335 651.783L3.86651 651.783L3.86651 653.632H2.1335Z" fill="#BDCCD4"/>
<path d="M2.1335 655.482L2.1335 653.632H3.86651L3.86651 655.482H2.1335Z" fill="#BDCCD4"/>
<path d="M2.1335 657.331V655.482H3.86651L3.86651 657.331H2.1335Z" fill="#BDCCD4"/>
<path d="M3.86651 655.482L3.86651 653.632L5.59955 653.633V655.482H3.86651Z" fill="#BDCCD4"/>
<path d="M3.86651 657.331L3.86651 655.482H5.59955V657.331H3.86651Z" fill="#BDCCD4"/>
<path d="M3.86651 659.18V657.331H5.59955L5.59953 659.18H3.86651Z" fill="#BDCCD4"/>
<path d="M2.1335 661.029V659.18L3.86651 659.18L3.86651 661.029H2.1335Z" fill="#BDCCD4"/>
<path d="M2.1335 662.879V661.029H3.86651L3.86651 662.879H2.1335Z" fill="#BDCCD4"/>
<path d="M2.1335 664.728V662.879H3.86651L3.86651 664.728H2.1335Z" fill="#BDCCD4"/>
<path d="M3.86651 662.879L3.86651 661.029L5.59955 661.03L5.59955 662.879L3.86651 662.879Z" fill="#BDCCD4"/>
<path d="M3.86651 664.728L3.86651 662.879L5.59955 662.879V664.728H3.86651Z" fill="#BDCCD4"/>
<path d="M3.86651 666.577L3.86651 664.728H5.59955L5.59953 666.577H3.86651Z" fill="#BDCCD4"/>
<path d="M2.1335 668.427L2.1335 666.577L3.86651 666.577L3.86651 668.427H2.1335Z" fill="#BDCCD4"/>
<path d="M2.1335 670.276L2.1335 668.427H3.86651L3.86651 670.276H2.1335Z" fill="#BDCCD4"/>
<path d="M2.1335 672.125V670.276H3.86651L3.86651 672.125H2.1335Z" fill="#BDCCD4"/>
<path d="M3.86651 670.276L3.86651 668.427L5.59955 668.427V670.276L3.86651 670.276Z" fill="#BDCCD4"/>
<path d="M3.86651 672.125L3.86651 670.276L5.59955 670.276V672.125H3.86651Z" fill="#BDCCD4"/>
<path d="M3.86651 673.974V672.125H5.59955L5.59953 673.974H3.86651Z" fill="#BDCCD4"/>
<path d="M2.1335 675.824L2.1335 673.974L3.86651 673.974L3.86651 675.824H2.1335Z" fill="#BDCCD4"/>
<path d="M2.1335 677.673L2.1335 675.824H3.86651L3.86651 677.673H2.1335Z" fill="#BDCCD4"/>
<path d="M2.1335 679.522V677.673H3.86651L3.86651 679.522H2.1335Z" fill="#BDCCD4"/>
<path d="M3.86651 677.673L3.86651 675.824L5.59955 675.824V677.673H3.86651Z" fill="#BDCCD4"/>
<path d="M3.86651 679.522L3.86651 677.673H5.59955V679.522H3.86651Z" fill="#BDCCD4"/>
<path d="M3.86651 681.371L3.86651 679.522H5.59955L5.59953 681.371H3.86651Z" fill="#BDCCD4"/>
<path d="M2.1335 683.221L2.1335 681.371L3.86651 681.371V683.221H2.1335Z" fill="#BDCCD4"/>
<path d="M2.1335 685.07L2.1335 683.221H3.86651L3.86651 685.07H2.1335Z" fill="#BDCCD4"/>
<path d="M2.1335 686.919V685.07H3.86651L3.86651 686.919H2.1335Z" fill="#BDCCD4"/>
<path d="M3.86651 685.07L3.86651 683.221L5.59955 683.221L5.59955 685.07L3.86651 685.07Z" fill="#BDCCD4"/>
<path d="M3.86651 686.919L3.86651 685.07L5.59955 685.07V686.919H3.86651Z" fill="#BDCCD4"/>
<path d="M3.86651 688.768L3.86651 686.919H5.59955L5.59953 688.768H3.86651Z" fill="#BDCCD4"/>
<path d="M2.13351 690.618V688.769L3.86651 688.768L3.86651 690.618H2.13351Z" fill="#BDCCD4"/>
<path d="M2.13351 692.467V690.618H3.86651L3.86651 692.467H2.13351Z" fill="#BDCCD4"/>
<path d="M2.13351 694.316V692.467H3.86651L3.86651 694.316H2.13351Z" fill="#BDCCD4"/>
<path d="M3.86651 692.467L3.86651 690.618L5.59955 690.618V692.467H3.86651Z" fill="#BDCCD4"/>
<path d="M3.86651 694.316L3.86651 692.467H5.59955V694.316H3.86651Z" fill="#BDCCD4"/>
<path d="M3.86651 696.166V694.316H5.59955L5.59953 696.166H3.86651Z" fill="#BDCCD4"/>
<path d="M2.13351 698.015L2.13351 696.166L3.86651 696.166L3.86651 698.015H2.13351Z" fill="#BDCCD4"/>
<path d="M2.13351 699.865L2.13351 698.015H3.86651L3.86651 699.865H2.13351Z" fill="#BDCCD4"/>
<path d="M2.13351 701.714V699.865H3.86651L3.86651 701.714H2.13351Z" fill="#BDCCD4"/>
<path d="M3.86651 699.865L3.86651 698.015L5.59955 698.015V699.865H3.86651Z" fill="#BDCCD4"/>
<path d="M3.86651 701.714L3.86651 699.865H5.59955V701.714H3.86651Z" fill="#BDCCD4"/>
<path d="M3.86651 703.563L3.86651 701.714H5.59955L5.59953 703.563H3.86651Z" fill="#BDCCD4"/>
<path d="M2.13351 705.412L2.13351 703.563L3.86651 703.563V705.412H2.13351Z" fill="#BDCCD4"/>
<path d="M2.13351 707.261L2.13351 705.412H3.86651L3.86652 707.261H2.13351Z" fill="#BDCCD4"/>
<path d="M2.13351 709.111V707.261H3.86652L3.86651 709.111H2.13351Z" fill="#BDCCD4"/>
<path d="M3.86652 707.261L3.86651 705.412L5.59956 705.412V707.262L3.86652 707.261Z" fill="#BDCCD4"/>
<path d="M3.86651 709.111L3.86652 707.261L5.59956 707.262V709.111H3.86651Z" fill="#BDCCD4"/>
<path d="M3.86652 710.96L3.86651 709.111H5.59956L5.59953 710.96H3.86652Z" fill="#BDCCD4"/>
<path d="M2.13351 712.809V710.96L3.86652 710.96L3.86652 712.809H2.13351Z" fill="#BDCCD4"/>
<path d="M2.13351 714.659V712.809H3.86652L3.86652 714.659H2.13351Z" fill="#BDCCD4"/>
<path d="M2.13351 716.508V714.659H3.86652L3.86652 716.508H2.13351Z" fill="#BDCCD4"/>
<path d="M3.86652 714.659L3.86652 712.809L5.59956 712.809V714.659H3.86652Z" fill="#BDCCD4"/>
<path d="M3.86652 716.508L3.86652 714.659H5.59956V716.508H3.86652Z" fill="#BDCCD4"/>
<path d="M3.86652 718.357V716.508H5.59956L5.59953 718.357H3.86652Z" fill="#BDCCD4"/>
<path d="M2.13351 720.206L2.13351 718.357L3.86652 718.357L3.86652 720.206H2.13351Z" fill="#BDCCD4"/>
<path d="M2.13351 722.055L2.13351 720.206H3.86652L3.86652 722.055H2.13351Z" fill="#BDCCD4"/>
<path d="M2.13351 723.905V722.055H3.86652L3.86652 723.905H2.13351Z" fill="#BDCCD4"/>
<path d="M3.86652 722.055L3.86652 720.206L5.59956 720.207V722.056L3.86652 722.055Z" fill="#BDCCD4"/>
<path d="M3.86652 723.905L3.86652 722.055L5.59956 722.056V723.905H3.86652Z" fill="#BDCCD4"/>
<path d="M3.86652 725.754L3.86652 723.905H5.59956L5.59953 725.754H3.86652Z" fill="#BDCCD4"/>
<path d="M2.13351 727.603L2.13351 725.754L3.86652 725.754V727.603H2.13351Z" fill="#BDCCD4"/>
<path d="M2.13351 729.452L2.13351 727.603H3.86652L3.86652 729.452H2.13351Z" fill="#BDCCD4"/>
<path d="M2.13355 733.151L2.13354 731.302L3.86655 731.302L3.86655 733.151H2.13355Z" fill="#BDCCD4"/>
<path d="M0.400513 731.301L0.400513 729.452L2.13351 729.452L2.13354 731.302L0.400513 731.301Z" fill="#BDCCD4"/>
<path d="M3.86652 729.452L3.86652 727.603L5.59953 727.603L5.59953 729.452H3.86652Z" fill="#BDCCD4"/>
<path d="M3.86655 731.302L3.86652 729.452H5.59953L5.59947 731.301L3.86655 731.302Z" fill="#BDCCD4"/>
<path d="M3.86655 733.151L3.86655 731.302L5.59947 731.301L5.59959 733.151H3.86655Z" fill="#BDCCD4"/>
<path d="M2.13354 734.998V733.149H3.86655L3.86655 734.998H2.13354Z" fill="#BDCCD4"/>
<path d="M3.86652 735L3.86655 733.151H5.59959L5.59953 735H3.86652Z" fill="#BDCCD4"/>
</svg>
