<svg width="28" height="28" viewBox="0 0 28 28" fill="none" xmlns="http://www.w3.org/2000/svg">
<path d="M14 0.4375C6.51016 0.4375 0.4375 6.51235 0.4375 14C0.4375 21.492 6.51016 27.5625 14 27.5625C21.4898 27.5625 27.5625 21.492 27.5625 14C27.5625 6.51235 21.4898 0.4375 14 0.4375ZM14 24.9375C7.95528 24.9375 3.0625 20.0467 3.0625 14C3.0625 7.9573 7.9555 3.0625 14 3.0625C20.0425 3.0625 24.9375 7.95545 24.9375 14C24.9375 20.0446 20.0467 24.9375 14 24.9375ZM19.8649 10.9812C19.8649 14.6482 15.9044 14.7046 15.9044 16.0597V16.4062C15.9044 16.7687 15.6105 17.0625 15.2481 17.0625H12.7518C12.3894 17.0625 12.0956 16.7687 12.0956 16.4062V15.9327C12.0956 13.9779 13.5776 13.1965 14.6975 12.5686C15.6579 12.0302 16.2465 11.664 16.2465 10.951C16.2465 10.0078 15.0434 9.3818 14.0708 9.3818C12.8027 9.3818 12.2172 9.98211 11.3943 11.0207C11.1724 11.3007 10.7676 11.3527 10.4829 11.1369L8.96126 9.98309C8.68197 9.77134 8.61941 9.37792 8.81666 9.08824C10.1088 7.19091 11.7545 6.125 14.3169 6.125C17.0004 6.125 19.8649 8.21975 19.8649 10.9812ZM16.2969 20.125C16.2969 21.3915 15.2665 22.4219 14 22.4219C12.7335 22.4219 11.7031 21.3915 11.7031 20.125C11.7031 18.8585 12.7335 17.8281 14 17.8281C15.2665 17.8281 16.2969 18.8585 16.2969 20.125Z" fill="#BDCCD4"/>
</svg>
